solid OpenSCAD_Model
  facet normal -1 0 0
    outer loop
      vertex 0 15 0
      vertex 0 14 2
      vertex 0 15 2
    endloop
  endfacet
  facet normal -1 0 0
    outer loop
      vertex 0 14 2
      vertex 0 11 2
      vertex 0 14 4
    endloop
  endfacet
  facet normal -1 0 0
    outer loop
      vertex 0 15 0
      vertex 0 11 2
      vertex 0 14 2
    endloop
  endfacet
  facet normal -1 0 0
    outer loop
      vertex 0 15 0
      vertex 0 4 2
      vertex 0 11 2
    endloop
  endfacet
  facet normal -1 0 0
    outer loop
      vertex 0 4 2
      vertex 0 1 2
      vertex 0 4 4
    endloop
  endfacet
  facet normal -1 0 0
    outer loop
      vertex 0 0 0
      vertex 0 4 2
      vertex 0 15 0
    endloop
  endfacet
  facet normal -1 -0 0
    outer loop
      vertex 0 4 2
      vertex 0 0 0
      vertex 0 1 2
    endloop
  endfacet
  facet normal -1 -0 0
    outer loop
      vertex 0 1 2
      vertex 0 0 0
      vertex 0 0 2
    endloop
  endfacet
  facet normal -1 -0 0
    outer loop
      vertex 0 14 4
      vertex 0 11 2
      vertex 0 11 4
    endloop
  endfacet
  facet normal -1 -0 0
    outer loop
      vertex 0 4 4
      vertex 0 1 2
      vertex 0 1 4
    endloop
  endfacet
  facet normal -0 0 1
    outer loop
      vertex 4.92388 4.38268 2
      vertex 22.5 3.5 2
      vertex 4.92388 10.6173 2
    endloop
  endfacet
  facet normal 0 0 1
    outer loop
      vertex 22.5 3.5 2
      vertex 4.92388 4.38268 2
      vertex 5 4 2
    endloop
  endfacet
  facet normal -0 0 1
    outer loop
      vertex 4.70711 10.2929 2
      vertex 4.92388 4.38268 2
      vertex 4.92388 10.6173 2
    endloop
  endfacet
  facet normal 0 0 1
    outer loop
      vertex 4.70711 10.2929 2
      vertex 4.70711 4.70711 2
      vertex 4.92388 4.38268 2
    endloop
  endfacet
  facet normal -0 0 1
    outer loop
      vertex 4.38268 10.0761 2
      vertex 4.70711 4.70711 2
      vertex 4.70711 10.2929 2
    endloop
  endfacet
  facet normal 0 0 1
    outer loop
      vertex 4.38268 10.0761 2
      vertex 4.38268 4.92388 2
      vertex 4.70711 4.70711 2
    endloop
  endfacet
  facet normal -0 0 1
    outer loop
      vertex 4 10 2
      vertex 4.38268 4.92388 2
      vertex 4.38268 10.0761 2
    endloop
  endfacet
  facet normal 0 0 1
    outer loop
      vertex 4 10 2
      vertex 4 5 2
      vertex 4.38268 4.92388 2
    endloop
  endfacet
  facet normal 0 0 1
    outer loop
      vertex 4 10 2
      vertex 1 5 2
      vertex 4 5 2
    endloop
  endfacet
  facet normal -0 0 1
    outer loop
      vertex 0.999999 10 2
      vertex 1 5 2
      vertex 4 10 2
    endloop
  endfacet
  facet normal 0 0 1
    outer loop
      vertex 0.617316 10.0761 2
      vertex 1 5 2
      vertex 0.999999 10 2
    endloop
  endfacet
  facet normal 0 0 1
    outer loop
      vertex 0.617316 10.0761 2
      vertex 0.617316 4.92388 2
      vertex 1 5 2
    endloop
  endfacet
  facet normal 0 0 1
    outer loop
      vertex 0.292892 10.2929 2
      vertex 0.617316 4.92388 2
      vertex 0.617316 10.0761 2
    endloop
  endfacet
  facet normal 0 0 1
    outer loop
      vertex 0.292892 10.2929 2
      vertex 0.292892 4.70711 2
      vertex 0.617316 4.92388 2
    endloop
  endfacet
  facet normal 0 0 1
    outer loop
      vertex 0.0761204 10.6173 2
      vertex 0.292892 4.70711 2
      vertex 0.292892 10.2929 2
    endloop
  endfacet
  facet normal 0 0 1
    outer loop
      vertex 0.0761204 10.6173 2
      vertex 0.0761204 4.38268 2
      vertex 0.292892 4.70711 2
    endloop
  endfacet
  facet normal 0 0 1
    outer loop
      vertex 0 11 2
      vertex 0.0761204 4.38268 2
      vertex 0.0761204 10.6173 2
    endloop
  endfacet
  facet normal 0 0 1
    outer loop
      vertex 0.0761204 4.38268 2
      vertex 0 11 2
      vertex 0 4 2
    endloop
  endfacet
  facet normal -0 0 1
    outer loop
      vertex 27.5 11.5 2
      vertex 45 11 2
      vertex 45 14 2
    endloop
  endfacet
  facet normal 0 0 1
    outer loop
      vertex 45 11 2
      vertex 27.5 11.5 2
      vertex 45 4 2
    endloop
  endfacet
  facet normal 0 0 1
    outer loop
      vertex 27.5 3.5 2
      vertex 45 4 2
      vertex 27.5 11.5 2
    endloop
  endfacet
  facet normal 0 0 1
    outer loop
      vertex 27.4239 11.8827 2
      vertex 45 14 2
      vertex 45.0761 14.3827 2
    endloop
  endfacet
  facet normal 0 0 1
    outer loop
      vertex 27.2071 12.2071 2
      vertex 45.0761 14.3827 2
      vertex 45.2929 14.7071 2
    endloop
  endfacet
  facet normal 0 0 1
    outer loop
      vertex 26.8827 12.4239 2
      vertex 45.2929 14.7071 2
      vertex 45.6173 14.9239 2
    endloop
  endfacet
  facet normal 0 0 1
    outer loop
      vertex 4.38268 14.9239 2
      vertex 45.6173 14.9239 2
      vertex 46 15 2
    endloop
  endfacet
  facet normal 0 0 1
    outer loop
      vertex 45 14 2
      vertex 27.4239 11.8827 2
      vertex 27.5 11.5 2
    endloop
  endfacet
  facet normal 0 0 1
    outer loop
      vertex 45.0761 14.3827 2
      vertex 27.2071 12.2071 2
      vertex 27.4239 11.8827 2
    endloop
  endfacet
  facet normal 0 0 1
    outer loop
      vertex 45.2929 14.7071 2
      vertex 26.8827 12.4239 2
      vertex 27.2071 12.2071 2
    endloop
  endfacet
  facet normal 0 0 1
    outer loop
      vertex 45.6173 14.9239 2
      vertex 26.5 12.5 2
      vertex 26.8827 12.4239 2
    endloop
  endfacet
  facet normal 0 0 1
    outer loop
      vertex 45.6173 14.9239 2
      vertex 23.5 12.5 2
      vertex 26.5 12.5 2
    endloop
  endfacet
  facet normal 0 0 1
    outer loop
      vertex 5 11 2
      vertex 22.5 11.5 2
      vertex 5 14 2
    endloop
  endfacet
  facet normal 0 0 1
    outer loop
      vertex 22.5761 11.8827 2
      vertex 5 14 2
      vertex 22.5 11.5 2
    endloop
  endfacet
  facet normal 0 0 1
    outer loop
      vertex 4.92388 14.3827 2
      vertex 22.5761 11.8827 2
      vertex 22.7929 12.2071 2
    endloop
  endfacet
  facet normal 0 0 1
    outer loop
      vertex 4.70711 14.7071 2
      vertex 22.7929 12.2071 2
      vertex 23.1173 12.4239 2
    endloop
  endfacet
  facet normal 0 0 1
    outer loop
      vertex 4.38268 14.9239 2
      vertex 23.1173 12.4239 2
      vertex 23.5 12.5 2
    endloop
  endfacet
  facet normal 0 0 1
    outer loop
      vertex 45.6173 14.9239 2
      vertex 4.38268 14.9239 2
      vertex 23.5 12.5 2
    endloop
  endfacet
  facet normal 0 0 1
    outer loop
      vertex 22.5761 11.8827 2
      vertex 4.92388 14.3827 2
      vertex 5 14 2
    endloop
  endfacet
  facet normal 0 0 1
    outer loop
      vertex 22.7929 12.2071 2
      vertex 4.70711 14.7071 2
      vertex 4.92388 14.3827 2
    endloop
  endfacet
  facet normal 0 0 1
    outer loop
      vertex 23.1173 12.4239 2
      vertex 4.38268 14.9239 2
      vertex 4.70711 14.7071 2
    endloop
  endfacet
  facet normal 0 -0 1
    outer loop
      vertex 4.38268 14.9239 2
      vertex 46 15 2
      vertex 4 15 2
    endloop
  endfacet
  facet normal -0 0 1
    outer loop
      vertex 49.9239 4.38268 2
      vertex 60 0 2
      vertex 49.9239 10.6173 2
    endloop
  endfacet
  facet normal 0 0 1
    outer loop
      vertex 60 0 2
      vertex 49.9239 4.38268 2
      vertex 50 4 2
    endloop
  endfacet
  facet normal -0 0 1
    outer loop
      vertex 49.7071 10.2929 2
      vertex 49.9239 4.38268 2
      vertex 49.9239 10.6173 2
    endloop
  endfacet
  facet normal 0 0 1
    outer loop
      vertex 49.7071 10.2929 2
      vertex 49.7071 4.70711 2
      vertex 49.9239 4.38268 2
    endloop
  endfacet
  facet normal -0 0 1
    outer loop
      vertex 49.3827 10.0761 2
      vertex 49.7071 4.70711 2
      vertex 49.7071 10.2929 2
    endloop
  endfacet
  facet normal 0 0 1
    outer loop
      vertex 49.3827 10.0761 2
      vertex 49.3827 4.92388 2
      vertex 49.7071 4.70711 2
    endloop
  endfacet
  facet normal -0 0 1
    outer loop
      vertex 49 10 2
      vertex 49.3827 4.92388 2
      vertex 49.3827 10.0761 2
    endloop
  endfacet
  facet normal 0 0 1
    outer loop
      vertex 49 10 2
      vertex 49 5 2
      vertex 49.3827 4.92388 2
    endloop
  endfacet
  facet normal -0 0 1
    outer loop
      vertex 46 10 2
      vertex 49 5 2
      vertex 49 10 2
    endloop
  endfacet
  facet normal 0 0 1
    outer loop
      vertex 46 10 2
      vertex 46 5 2
      vertex 49 5 2
    endloop
  endfacet
  facet normal 0 0 1
    outer loop
      vertex 45.6173 10.0761 2
      vertex 46 5 2
      vertex 46 10 2
    endloop
  endfacet
  facet normal 0 0 1
    outer loop
      vertex 45.6173 10.0761 2
      vertex 45.6173 4.92388 2
      vertex 46 5 2
    endloop
  endfacet
  facet normal 0 0 1
    outer loop
      vertex 45.2929 10.2929 2
      vertex 45.6173 4.92388 2
      vertex 45.6173 10.0761 2
    endloop
  endfacet
  facet normal 0 0 1
    outer loop
      vertex 45.2929 10.2929 2
      vertex 45.2929 4.70711 2
      vertex 45.6173 4.92388 2
    endloop
  endfacet
  facet normal 0 0 1
    outer loop
      vertex 45.0761 10.6173 2
      vertex 45.2929 4.70711 2
      vertex 45.2929 10.2929 2
    endloop
  endfacet
  facet normal 0 0 1
    outer loop
      vertex 45.0761 10.6173 2
      vertex 45.0761 4.38268 2
      vertex 45.2929 4.70711 2
    endloop
  endfacet
  facet normal 0 0 1
    outer loop
      vertex 45 11 2
      vertex 45.0761 4.38268 2
      vertex 45.0761 10.6173 2
    endloop
  endfacet
  facet normal 0 0 1
    outer loop
      vertex 45.0761 4.38268 2
      vertex 45 11 2
      vertex 45 4 2
    endloop
  endfacet
  facet normal 0 0 1
    outer loop
      vertex 50 11 2
      vertex 60 15 2
      vertex 50 14 2
    endloop
  endfacet
  facet normal 0 0 1
    outer loop
      vertex 60 15 2
      vertex 49.9239 14.3827 2
      vertex 50 14 2
    endloop
  endfacet
  facet normal 0 0 1
    outer loop
      vertex 60 15 2
      vertex 49.7071 14.7071 2
      vertex 49.9239 14.3827 2
    endloop
  endfacet
  facet normal 0 0 1
    outer loop
      vertex 60 15 2
      vertex 49.3827 14.9239 2
      vertex 49.7071 14.7071 2
    endloop
  endfacet
  facet normal 0 -0 1
    outer loop
      vertex 49.3827 14.9239 2
      vertex 60 15 2
      vertex 49 15 2
    endloop
  endfacet
  facet normal 0 0 1
    outer loop
      vertex 49.9239 10.6173 2
      vertex 60 15 2
      vertex 50 11 2
    endloop
  endfacet
  facet normal 0 0 1
    outer loop
      vertex 60 15 2
      vertex 49.9239 10.6173 2
      vertex 60 0 2
    endloop
  endfacet
  facet normal -0 0 1
    outer loop
      vertex 50 1 2
      vertex 60 0 2
      vertex 50 4 2
    endloop
  endfacet
  facet normal -0 0 1
    outer loop
      vertex 49.9239 0.617316 2
      vertex 60 0 2
      vertex 50 1 2
    endloop
  endfacet
  facet normal -0 0 1
    outer loop
      vertex 49.7071 0.292892 2
      vertex 60 0 2
      vertex 49.9239 0.617316 2
    endloop
  endfacet
  facet normal -0 0 1
    outer loop
      vertex 49.3827 0.0761204 2
      vertex 60 0 2
      vertex 49.7071 0.292892 2
    endloop
  endfacet
  facet normal 0 0 1
    outer loop
      vertex 60 0 2
      vertex 49.3827 0.0761204 2
      vertex 49 0 2
    endloop
  endfacet
  facet normal 0 0 1
    outer loop
      vertex 45 4 2
      vertex 27.5 3.5 2
      vertex 45 1 2
    endloop
  endfacet
  facet normal -0 0 1
    outer loop
      vertex 27.4239 3.11732 2
      vertex 45 1 2
      vertex 27.5 3.5 2
    endloop
  endfacet
  facet normal 0 0 1
    outer loop
      vertex 45 1 2
      vertex 27.4239 3.11732 2
      vertex 45.0761 0.617316 2
    endloop
  endfacet
  facet normal -0 0 1
    outer loop
      vertex 27.2071 2.79289 2
      vertex 45.0761 0.617316 2
      vertex 27.4239 3.11732 2
    endloop
  endfacet
  facet normal 0 0 1
    outer loop
      vertex 45.0761 0.617316 2
      vertex 27.2071 2.79289 2
      vertex 45.2929 0.292892 2
    endloop
  endfacet
  facet normal -0 0 1
    outer loop
      vertex 26.8827 2.57612 2
      vertex 45.2929 0.292892 2
      vertex 27.2071 2.79289 2
    endloop
  endfacet
  facet normal 0 0 1
    outer loop
      vertex 45.2929 0.292892 2
      vertex 26.8827 2.57612 2
      vertex 45.6173 0.0761204 2
    endloop
  endfacet
  facet normal -0 0 1
    outer loop
      vertex 26.5 2.5 2
      vertex 45.6173 0.0761204 2
      vertex 26.8827 2.57612 2
    endloop
  endfacet
  facet normal -0 0 1
    outer loop
      vertex 23.5 2.5 2
      vertex 45.6173 0.0761204 2
      vertex 26.5 2.5 2
    endloop
  endfacet
  facet normal 0 0 1
    outer loop
      vertex 4.38268 0.0761204 2
      vertex 45.6173 0.0761204 2
      vertex 23.5 2.5 2
    endloop
  endfacet
  facet normal 0 0 1
    outer loop
      vertex 4.92388 10.6173 2
      vertex 22.5 11.5 2
      vertex 5 11 2
    endloop
  endfacet
  facet normal 0 0 1
    outer loop
      vertex 22.5 11.5 2
      vertex 4.92388 10.6173 2
      vertex 22.5 3.5 2
    endloop
  endfacet
  facet normal 0 0 1
    outer loop
      vertex 5 1 2
      vertex 22.5 3.5 2
      vertex 5 4 2
    endloop
  endfacet
  facet normal 0 0 1
    outer loop
      vertex 22.5 3.5 2
      vertex 5 1 2
      vertex 22.5761 3.11732 2
    endloop
  endfacet
  facet normal 0 0 1
    outer loop
      vertex 4.92388 0.617316 2
      vertex 22.5761 3.11732 2
      vertex 5 1 2
    endloop
  endfacet
  facet normal 0 0 1
    outer loop
      vertex 22.5761 3.11732 2
      vertex 4.92388 0.617316 2
      vertex 22.7929 2.79289 2
    endloop
  endfacet
  facet normal 0 0 1
    outer loop
      vertex 4.70711 0.292892 2
      vertex 22.7929 2.79289 2
      vertex 4.92388 0.617316 2
    endloop
  endfacet
  facet normal 0 0 1
    outer loop
      vertex 22.7929 2.79289 2
      vertex 4.70711 0.292892 2
      vertex 23.1173 2.57612 2
    endloop
  endfacet
  facet normal 0 0 1
    outer loop
      vertex 4.38268 0.0761204 2
      vertex 23.1173 2.57612 2
      vertex 4.70711 0.292892 2
    endloop
  endfacet
  facet normal 0 0 1
    outer loop
      vertex 23.1173 2.57612 2
      vertex 4.38268 0.0761204 2
      vertex 23.5 2.5 2
    endloop
  endfacet
  facet normal 0 0 1
    outer loop
      vertex 45.6173 0.0761204 2
      vertex 4.38268 0.0761204 2
      vertex 46 0 2
    endloop
  endfacet
  facet normal 0 0 1
    outer loop
      vertex 46 0 2
      vertex 4.38268 0.0761204 2
      vertex 4 0 2
    endloop
  endfacet
  facet normal -0 0 1
    outer loop
      vertex 0 15 2
      vertex 0.617316 14.9239 2
      vertex 1 15 2
    endloop
  endfacet
  facet normal 0 0 1
    outer loop
      vertex 0 15 2
      vertex 0.292892 14.7071 2
      vertex 0.617316 14.9239 2
    endloop
  endfacet
  facet normal 0 0 1
    outer loop
      vertex 0 15 2
      vertex 0.0761204 14.3827 2
      vertex 0.292892 14.7071 2
    endloop
  endfacet
  facet normal 0 0 1
    outer loop
      vertex 0.0761204 14.3827 2
      vertex 0 15 2
      vertex 0 14 2
    endloop
  endfacet
  facet normal 0 0 1
    outer loop
      vertex 0.617316 0.0761204 2
      vertex 0 0 2
      vertex 0.999999 0 2
    endloop
  endfacet
  facet normal 0 0 1
    outer loop
      vertex 0.292892 0.292892 2
      vertex 0 0 2
      vertex 0.617316 0.0761204 2
    endloop
  endfacet
  facet normal 0 0 1
    outer loop
      vertex 0.0761204 0.617316 2
      vertex 0 0 2
      vertex 0.292892 0.292892 2
    endloop
  endfacet
  facet normal 0 0 1
    outer loop
      vertex 0 0 2
      vertex 0.0761204 0.617316 2
      vertex 0 1 2
    endloop
  endfacet
  facet normal 1 -0 0
    outer loop
      vertex 60 0 2
      vertex 60 15 0
      vertex 60 15 2
    endloop
  endfacet
  facet normal 1 0 0
    outer loop
      vertex 60 15 0
      vertex 60 0 2
      vertex 60 0 0
    endloop
  endfacet
  facet normal 0 0 -1
    outer loop
      vertex 60 0 0
      vertex 27.5 3.5 0
      vertex 60 15 0
    endloop
  endfacet
  facet normal 0 0 -1
    outer loop
      vertex 60 0 0
      vertex 27.4239 3.11732 0
      vertex 27.5 3.5 0
    endloop
  endfacet
  facet normal 0 0 -1
    outer loop
      vertex 60 0 0
      vertex 27.2071 2.79289 0
      vertex 27.4239 3.11732 0
    endloop
  endfacet
  facet normal 0 0 -1
    outer loop
      vertex 60 0 0
      vertex 26.8827 2.57612 0
      vertex 27.2071 2.79289 0
    endloop
  endfacet
  facet normal 0 0 -1
    outer loop
      vertex 60 0 0
      vertex 26.5 2.5 0
      vertex 26.8827 2.57612 0
    endloop
  endfacet
  facet normal 0 0 -1
    outer loop
      vertex 0 0 0
      vertex 26.5 2.5 0
      vertex 60 0 0
    endloop
  endfacet
  facet normal -0 0 -1
    outer loop
      vertex 22.5 3.5 0
      vertex 0 0 0
      vertex 22.5 11.5 0
    endloop
  endfacet
  facet normal -0 0 -1
    outer loop
      vertex 22.5761 3.11732 0
      vertex 0 0 0
      vertex 22.5 3.5 0
    endloop
  endfacet
  facet normal -0 0 -1
    outer loop
      vertex 22.7929 2.79289 0
      vertex 0 0 0
      vertex 22.5761 3.11732 0
    endloop
  endfacet
  facet normal -0 0 -1
    outer loop
      vertex 23.1173 2.57612 0
      vertex 0 0 0
      vertex 22.7929 2.79289 0
    endloop
  endfacet
  facet normal -0 0 -1
    outer loop
      vertex 23.5 2.5 0
      vertex 0 0 0
      vertex 23.1173 2.57612 0
    endloop
  endfacet
  facet normal -0 0 -1
    outer loop
      vertex 26.5 2.5 0
      vertex 0 0 0
      vertex 23.5 2.5 0
    endloop
  endfacet
  facet normal 0 0 -1
    outer loop
      vertex 27.5 11.5 0
      vertex 60 15 0
      vertex 27.5 3.5 0
    endloop
  endfacet
  facet normal 0 0 -1
    outer loop
      vertex 27.4239 11.8827 0
      vertex 60 15 0
      vertex 27.5 11.5 0
    endloop
  endfacet
  facet normal 0 0 -1
    outer loop
      vertex 27.2071 12.2071 0
      vertex 60 15 0
      vertex 27.4239 11.8827 0
    endloop
  endfacet
  facet normal 0 0 -1
    outer loop
      vertex 26.8827 12.4239 0
      vertex 60 15 0
      vertex 27.2071 12.2071 0
    endloop
  endfacet
  facet normal 0 0 -1
    outer loop
      vertex 26.5 12.5 0
      vertex 60 15 0
      vertex 26.8827 12.4239 0
    endloop
  endfacet
  facet normal 0 0 -1
    outer loop
      vertex 0 15 0
      vertex 26.5 12.5 0
      vertex 23.5 12.5 0
    endloop
  endfacet
  facet normal 0 0 -1
    outer loop
      vertex 0 15 0
      vertex 22.5 11.5 0
      vertex 0 0 0
    endloop
  endfacet
  facet normal 0 0 -1
    outer loop
      vertex 22.5 11.5 0
      vertex 0 15 0
      vertex 22.5761 11.8827 0
    endloop
  endfacet
  facet normal 0 0 -1
    outer loop
      vertex 22.5761 11.8827 0
      vertex 0 15 0
      vertex 22.7929 12.2071 0
    endloop
  endfacet
  facet normal 0 0 -1
    outer loop
      vertex 26.5 12.5 0
      vertex 0 15 0
      vertex 60 15 0
    endloop
  endfacet
  facet normal 0 0 -1
    outer loop
      vertex 23.1173 12.4239 0
      vertex 0 15 0
      vertex 23.5 12.5 0
    endloop
  endfacet
  facet normal 0 0 -1
    outer loop
      vertex 22.7929 12.2071 0
      vertex 0 15 0
      vertex 23.1173 12.4239 0
    endloop
  endfacet
  facet normal 0 -1 0
    outer loop
      vertex 0 0 0
      vertex 0.999999 0 2
      vertex 0 0 2
    endloop
  endfacet
  facet normal 0 -1 -0
    outer loop
      vertex 0.999999 0 2
      vertex 0 0 0
      vertex 4 0 2
    endloop
  endfacet
  facet normal 0 -1 -0
    outer loop
      vertex 4 0 2
      vertex 0 0 0
      vertex 46 0 2
    endloop
  endfacet
  facet normal 0 -1 0
    outer loop
      vertex 60 0 0
      vertex 46 0 2
      vertex 0 0 0
    endloop
  endfacet
  facet normal 0 -1 0
    outer loop
      vertex 46 0 2
      vertex 60 0 0
      vertex 49 0 2
    endloop
  endfacet
  facet normal 0 -1 0
    outer loop
      vertex 49 0 2
      vertex 60 0 0
      vertex 60 0 2
    endloop
  endfacet
  facet normal 0 -1 0
    outer loop
      vertex 0.999999 0 2
      vertex 4 0 4
      vertex 0.999999 0 4
    endloop
  endfacet
  facet normal 0 -1 -0
    outer loop
      vertex 4 0 4
      vertex 0.999999 0 2
      vertex 4 0 2
    endloop
  endfacet
  facet normal 0 -1 0
    outer loop
      vertex 46 0 2
      vertex 49 0 4
      vertex 46 0 4
    endloop
  endfacet
  facet normal 0 -1 -0
    outer loop
      vertex 49 0 4
      vertex 46 0 2
      vertex 49 0 2
    endloop
  endfacet
  facet normal 0 1 -0
    outer loop
      vertex 60 15 0
      vertex 49 15 2
      vertex 60 15 2
    endloop
  endfacet
  facet normal 0 1 0
    outer loop
      vertex 49 15 2
      vertex 60 15 0
      vertex 46 15 2
    endloop
  endfacet
  facet normal 0 1 0
    outer loop
      vertex 0 15 0
      vertex 46 15 2
      vertex 60 15 0
    endloop
  endfacet
  facet normal 0 1 0
    outer loop
      vertex 46 15 2
      vertex 0 15 0
      vertex 4 15 2
    endloop
  endfacet
  facet normal 0 1 0
    outer loop
      vertex 4 15 2
      vertex 0 15 0
      vertex 1 15 2
    endloop
  endfacet
  facet normal 0 1 0
    outer loop
      vertex 1 15 2
      vertex 0 15 0
      vertex 0 15 2
    endloop
  endfacet
  facet normal 0 1 -0
    outer loop
      vertex 49 15 2
      vertex 46 15 4
      vertex 49 15 4
    endloop
  endfacet
  facet normal 0 1 0
    outer loop
      vertex 46 15 4
      vertex 49 15 2
      vertex 46 15 2
    endloop
  endfacet
  facet normal 0 1 -0
    outer loop
      vertex 4 15 2
      vertex 1 15 4
      vertex 4 15 4
    endloop
  endfacet
  facet normal 0 1 0
    outer loop
      vertex 1 15 4
      vertex 4 15 2
      vertex 1 15 2
    endloop
  endfacet
  facet normal 0.195081 0.980787 -0
    outer loop
      vertex 23.5 2.5 0
      vertex 23.1173 2.57612 2
      vertex 23.5 2.5 2
    endloop
  endfacet
  facet normal 0.195081 0.980787 0
    outer loop
      vertex 23.1173 2.57612 2
      vertex 23.5 2.5 0
      vertex 23.1173 2.57612 0
    endloop
  endfacet
  facet normal 0.555646 -0.831419 0
    outer loop
      vertex 22.7929 12.2071 0
      vertex 23.1173 12.4239 2
      vertex 22.7929 12.2071 2
    endloop
  endfacet
  facet normal 0.555646 -0.831419 0
    outer loop
      vertex 23.1173 12.4239 2
      vertex 22.7929 12.2071 0
      vertex 23.1173 12.4239 0
    endloop
  endfacet
  facet normal 0 1 -0
    outer loop
      vertex 26.5 2.5 0
      vertex 23.5 2.5 2
      vertex 26.5 2.5 2
    endloop
  endfacet
  facet normal 0 1 0
    outer loop
      vertex 23.5 2.5 2
      vertex 26.5 2.5 0
      vertex 23.5 2.5 0
    endloop
  endfacet
  facet normal 0.831443 0.555611 0
    outer loop
      vertex 22.7929 2.79289 2
      vertex 22.5761 3.11732 0
      vertex 22.5761 3.11732 2
    endloop
  endfacet
  facet normal 0.831443 0.555611 0
    outer loop
      vertex 22.5761 3.11732 0
      vertex 22.7929 2.79289 2
      vertex 22.7929 2.79289 0
    endloop
  endfacet
  facet normal -0.831443 0.555611 0
    outer loop
      vertex 27.2071 2.79289 0
      vertex 27.4239 3.11732 2
      vertex 27.4239 3.11732 0
    endloop
  endfacet
  facet normal -0.831443 0.555611 0
    outer loop
      vertex 27.4239 3.11732 2
      vertex 27.2071 2.79289 0
      vertex 27.2071 2.79289 2
    endloop
  endfacet
  facet normal 0.555593 0.831454 -0
    outer loop
      vertex 23.1173 2.57612 0
      vertex 22.7929 2.79289 2
      vertex 23.1173 2.57612 2
    endloop
  endfacet
  facet normal 0.555593 0.831454 0
    outer loop
      vertex 22.7929 2.79289 2
      vertex 23.1173 2.57612 0
      vertex 22.7929 2.79289 0
    endloop
  endfacet
  facet normal 1 -0 0
    outer loop
      vertex 22.5 3.5 2
      vertex 22.5 11.5 0
      vertex 22.5 11.5 2
    endloop
  endfacet
  facet normal 1 0 0
    outer loop
      vertex 22.5 11.5 0
      vertex 22.5 3.5 2
      vertex 22.5 3.5 0
    endloop
  endfacet
  facet normal 0.980795 0.195042 0
    outer loop
      vertex 22.5761 3.11732 2
      vertex 22.5 3.5 0
      vertex 22.5 3.5 2
    endloop
  endfacet
  facet normal 0.980795 0.195042 0
    outer loop
      vertex 22.5 3.5 0
      vertex 22.5761 3.11732 2
      vertex 22.5761 3.11732 0
    endloop
  endfacet
  facet normal 0.980797 -0.195032 0
    outer loop
      vertex 22.5 11.5 2
      vertex 22.5761 11.8827 0
      vertex 22.5761 11.8827 2
    endloop
  endfacet
  facet normal 0.980797 -0.195032 0
    outer loop
      vertex 22.5761 11.8827 0
      vertex 22.5 11.5 2
      vertex 22.5 11.5 0
    endloop
  endfacet
  facet normal 0.831419 -0.555646 0
    outer loop
      vertex 22.5761 11.8827 2
      vertex 22.7929 12.2071 0
      vertex 22.7929 12.2071 2
    endloop
  endfacet
  facet normal 0.831419 -0.555646 0
    outer loop
      vertex 22.7929 12.2071 0
      vertex 22.5761 11.8827 2
      vertex 22.5761 11.8827 0
    endloop
  endfacet
  facet normal -0.831419 -0.555646 0
    outer loop
      vertex 27.4239 11.8827 0
      vertex 27.2071 12.2071 2
      vertex 27.2071 12.2071 0
    endloop
  endfacet
  facet normal -0.831419 -0.555646 0
    outer loop
      vertex 27.2071 12.2071 2
      vertex 27.4239 11.8827 0
      vertex 27.4239 11.8827 2
    endloop
  endfacet
  facet normal -0.195081 0.980787 0
    outer loop
      vertex 26.8827 2.57612 0
      vertex 26.5 2.5 2
      vertex 26.8827 2.57612 2
    endloop
  endfacet
  facet normal -0.195081 0.980787 0
    outer loop
      vertex 26.5 2.5 2
      vertex 26.8827 2.57612 0
      vertex 26.5 2.5 0
    endloop
  endfacet
  facet normal 0.195032 -0.980797 0
    outer loop
      vertex 23.1173 12.4239 0
      vertex 23.5 12.5 2
      vertex 23.1173 12.4239 2
    endloop
  endfacet
  facet normal 0.195032 -0.980797 0
    outer loop
      vertex 23.5 12.5 2
      vertex 23.1173 12.4239 0
      vertex 23.5 12.5 0
    endloop
  endfacet
  facet normal 0 -1 0
    outer loop
      vertex 23.5 12.5 0
      vertex 26.5 12.5 2
      vertex 23.5 12.5 2
    endloop
  endfacet
  facet normal 0 -1 -0
    outer loop
      vertex 26.5 12.5 2
      vertex 23.5 12.5 0
      vertex 26.5 12.5 0
    endloop
  endfacet
  facet normal -0.555646 -0.831419 0
    outer loop
      vertex 26.8827 12.4239 0
      vertex 27.2071 12.2071 2
      vertex 26.8827 12.4239 2
    endloop
  endfacet
  facet normal -0.555646 -0.831419 -0
    outer loop
      vertex 27.2071 12.2071 2
      vertex 26.8827 12.4239 0
      vertex 27.2071 12.2071 0
    endloop
  endfacet
  facet normal -1 0 0
    outer loop
      vertex 27.5 3.5 0
      vertex 27.5 11.5 2
      vertex 27.5 11.5 0
    endloop
  endfacet
  facet normal -1 -0 0
    outer loop
      vertex 27.5 11.5 2
      vertex 27.5 3.5 0
      vertex 27.5 3.5 2
    endloop
  endfacet
  facet normal -0.555593 0.831454 0
    outer loop
      vertex 27.2071 2.79289 0
      vertex 26.8827 2.57612 2
      vertex 27.2071 2.79289 2
    endloop
  endfacet
  facet normal -0.555593 0.831454 0
    outer loop
      vertex 26.8827 2.57612 2
      vertex 27.2071 2.79289 0
      vertex 26.8827 2.57612 0
    endloop
  endfacet
  facet normal -0.195032 -0.980797 0
    outer loop
      vertex 26.5 12.5 0
      vertex 26.8827 12.4239 2
      vertex 26.5 12.5 2
    endloop
  endfacet
  facet normal -0.195032 -0.980797 -0
    outer loop
      vertex 26.8827 12.4239 2
      vertex 26.5 12.5 0
      vertex 26.8827 12.4239 0
    endloop
  endfacet
  facet normal -0.980797 -0.195032 0
    outer loop
      vertex 27.5 11.5 0
      vertex 27.4239 11.8827 2
      vertex 27.4239 11.8827 0
    endloop
  endfacet
  facet normal -0.980797 -0.195032 0
    outer loop
      vertex 27.4239 11.8827 2
      vertex 27.5 11.5 0
      vertex 27.5 11.5 2
    endloop
  endfacet
  facet normal -0.980795 0.195042 0
    outer loop
      vertex 27.4239 3.11732 0
      vertex 27.5 3.5 2
      vertex 27.5 3.5 0
    endloop
  endfacet
  facet normal -0.980795 0.195042 0
    outer loop
      vertex 27.5 3.5 2
      vertex 27.4239 3.11732 0
      vertex 27.4239 3.11732 2
    endloop
  endfacet
  facet normal 0.831473 -0.555565 0
    outer loop
      vertex 4.70711 0.292892 4
      vertex 4.92388 0.617316 2
      vertex 4.92388 0.617316 4
    endloop
  endfacet
  facet normal 0.831473 -0.555565 0
    outer loop
      vertex 4.92388 0.617316 2
      vertex 4.70711 0.292892 4
      vertex 4.70711 0.292892 2
    endloop
  endfacet
  facet normal -0.980785 -0.19509 0
    outer loop
      vertex 0.0761204 0.617316 2
      vertex 0 1 4
      vertex 0 1 2
    endloop
  endfacet
  facet normal -0.980785 -0.19509 0
    outer loop
      vertex 0 1 4
      vertex 0.0761204 0.617316 2
      vertex 0.0761204 0.617316 4
    endloop
  endfacet
  facet normal -0.831476 0.55556 0
    outer loop
      vertex 0.0761204 4.38268 2
      vertex 0.292892 4.70711 4
      vertex 0.292892 4.70711 2
    endloop
  endfacet
  facet normal -0.831476 0.55556 0
    outer loop
      vertex 0.292892 4.70711 4
      vertex 0.0761204 4.38268 2
      vertex 0.0761204 4.38268 4
    endloop
  endfacet
  facet normal 0.831478 0.555557 0
    outer loop
      vertex 4.92388 4.38268 4
      vertex 4.70711 4.70711 2
      vertex 4.70711 4.70711 4
    endloop
  endfacet
  facet normal 0.831478 0.555557 0
    outer loop
      vertex 4.70711 4.70711 2
      vertex 4.92388 4.38268 4
      vertex 4.92388 4.38268 2
    endloop
  endfacet
  facet normal 0.555557 0.831478 -0
    outer loop
      vertex 4.70711 4.70711 2
      vertex 4.38268 4.92388 4
      vertex 4.70711 4.70711 4
    endloop
  endfacet
  facet normal 0.555557 0.831478 0
    outer loop
      vertex 4.38268 4.92388 4
      vertex 4.70711 4.70711 2
      vertex 4.38268 4.92388 2
    endloop
  endfacet
  facet normal 1 -0 0
    outer loop
      vertex 5 1 4
      vertex 5 4 2
      vertex 5 4 4
    endloop
  endfacet
  facet normal 1 0 0
    outer loop
      vertex 5 4 2
      vertex 5 1 4
      vertex 5 1 2
    endloop
  endfacet
  facet normal 0.980786 -0.195089 0
    outer loop
      vertex 4.92388 0.617316 4
      vertex 5 1 2
      vertex 5 1 4
    endloop
  endfacet
  facet normal 0.980786 -0.195089 0
    outer loop
      vertex 5 1 2
      vertex 4.92388 0.617316 4
      vertex 4.92388 0.617316 2
    endloop
  endfacet
  facet normal 0.195092 -0.980785 0
    outer loop
      vertex 4 0 2
      vertex 4.38268 0.0761204 4
      vertex 4 0 4
    endloop
  endfacet
  facet normal 0.195092 -0.980785 0
    outer loop
      vertex 4.38268 0.0761204 4
      vertex 4 0 2
      vertex 4.38268 0.0761204 2
    endloop
  endfacet
  facet normal -0.831471 -0.555567 0
    outer loop
      vertex 0.292892 0.292892 2
      vertex 0.0761204 0.617316 4
      vertex 0.0761204 0.617316 2
    endloop
  endfacet
  facet normal -0.831471 -0.555567 0
    outer loop
      vertex 0.0761204 0.617316 4
      vertex 0.292892 0.292892 2
      vertex 0.292892 0.292892 4
    endloop
  endfacet
  facet normal 0 0 1
    outer loop
      vertex 4 5 4
      vertex 5 4 4
      vertex 4.92388 4.38268 4
    endloop
  endfacet
  facet normal 0 0 1
    outer loop
      vertex 5 4 4
      vertex 4 5 4
      vertex 5 1 4
    endloop
  endfacet
  facet normal 0 0 1
    outer loop
      vertex 4 5 4
      vertex 4.92388 4.38268 4
      vertex 4.70711 4.70711 4
    endloop
  endfacet
  facet normal 0 0 1
    outer loop
      vertex 4 0 4
      vertex 5 1 4
      vertex 4 5 4
    endloop
  endfacet
  facet normal 0 0 1
    outer loop
      vertex 4 5 4
      vertex 4.70711 4.70711 4
      vertex 4.38268 4.92388 4
    endloop
  endfacet
  facet normal 0 0 1
    outer loop
      vertex 5 1 4
      vertex 4 0 4
      vertex 4.92388 0.617316 4
    endloop
  endfacet
  facet normal 0 0 1
    outer loop
      vertex 4.92388 0.617316 4
      vertex 4 0 4
      vertex 4.70711 0.292892 4
    endloop
  endfacet
  facet normal 0 0 1
    outer loop
      vertex 4.70711 0.292892 4
      vertex 4 0 4
      vertex 4.38268 0.0761204 4
    endloop
  endfacet
  facet normal -0 0 1
    outer loop
      vertex 1 5 4
      vertex 4 0 4
      vertex 4 5 4
    endloop
  endfacet
  facet normal 0 0 1
    outer loop
      vertex 1 5 4
      vertex 0.999999 0 4
      vertex 4 0 4
    endloop
  endfacet
  facet normal 0 0 1
    outer loop
      vertex 0 4 4
      vertex 1 5 4
      vertex 0.617316 4.92388 4
    endloop
  endfacet
  facet normal 0 0 1
    outer loop
      vertex 1 5 4
      vertex 0 4 4
      vertex 0.999999 0 4
    endloop
  endfacet
  facet normal 0 0 1
    outer loop
      vertex 0 4 4
      vertex 0.617316 4.92388 4
      vertex 0.292892 4.70711 4
    endloop
  endfacet
  facet normal -0 0 1
    outer loop
      vertex 0 1 4
      vertex 0.999999 0 4
      vertex 0 4 4
    endloop
  endfacet
  facet normal 0 0 1
    outer loop
      vertex 0 4 4
      vertex 0.292892 4.70711 4
      vertex 0.0761204 4.38268 4
    endloop
  endfacet
  facet normal 0 0 1
    outer loop
      vertex 0.999999 0 4
      vertex 0 1 4
      vertex 0.617316 0.0761204 4
    endloop
  endfacet
  facet normal 0 0 1
    outer loop
      vertex 0.617316 0.0761204 4
      vertex 0 1 4
      vertex 0.292892 0.292892 4
    endloop
  endfacet
  facet normal 0 0 1
    outer loop
      vertex 0.292892 0.292892 4
      vertex 0 1 4
      vertex 0.0761204 0.617316 4
    endloop
  endfacet
  facet normal -0.980785 0.195092 0
    outer loop
      vertex 0 4 2
      vertex 0.0761204 4.38268 4
      vertex 0.0761204 4.38268 2
    endloop
  endfacet
  facet normal -0.980785 0.195092 0
    outer loop
      vertex 0.0761204 4.38268 4
      vertex 0 4 2
      vertex 0 4 4
    endloop
  endfacet
  facet normal 0 1 -0
    outer loop
      vertex 4 5 2
      vertex 1 5 4
      vertex 4 5 4
    endloop
  endfacet
  facet normal 0 1 0
    outer loop
      vertex 1 5 4
      vertex 4 5 2
      vertex 1 5 2
    endloop
  endfacet
  facet normal 0.195091 0.980785 -0
    outer loop
      vertex 4.38268 4.92388 2
      vertex 4 5 4
      vertex 4.38268 4.92388 4
    endloop
  endfacet
  facet normal 0.195091 0.980785 0
    outer loop
      vertex 4 5 4
      vertex 4.38268 4.92388 2
      vertex 4 5 2
    endloop
  endfacet
  facet normal 0.55556 -0.831476 0
    outer loop
      vertex 4.38268 0.0761204 2
      vertex 4.70711 0.292892 4
      vertex 4.38268 0.0761204 4
    endloop
  endfacet
  facet normal 0.55556 -0.831476 0
    outer loop
      vertex 4.70711 0.292892 4
      vertex 4.38268 0.0761204 2
      vertex 4.70711 0.292892 2
    endloop
  endfacet
  facet normal -0.555567 -0.831471 0
    outer loop
      vertex 0.292892 0.292892 2
      vertex 0.617316 0.0761204 4
      vertex 0.292892 0.292892 4
    endloop
  endfacet
  facet normal -0.555567 -0.831471 -0
    outer loop
      vertex 0.617316 0.0761204 4
      vertex 0.292892 0.292892 2
      vertex 0.617316 0.0761204 2
    endloop
  endfacet
  facet normal -0.19509 -0.980785 0
    outer loop
      vertex 0.617316 0.0761204 2
      vertex 0.999999 0 4
      vertex 0.617316 0.0761204 4
    endloop
  endfacet
  facet normal -0.19509 -0.980785 -0
    outer loop
      vertex 0.999999 0 4
      vertex 0.617316 0.0761204 2
      vertex 0.999999 0 2
    endloop
  endfacet
  facet normal -0.555565 0.831473 0
    outer loop
      vertex 0.617316 4.92388 2
      vertex 0.292892 4.70711 4
      vertex 0.617316 4.92388 4
    endloop
  endfacet
  facet normal -0.555565 0.831473 0
    outer loop
      vertex 0.292892 4.70711 4
      vertex 0.617316 4.92388 2
      vertex 0.292892 4.70711 2
    endloop
  endfacet
  facet normal 0.980785 0.195091 0
    outer loop
      vertex 5 4 4
      vertex 4.92388 4.38268 2
      vertex 4.92388 4.38268 4
    endloop
  endfacet
  facet normal 0.980785 0.195091 0
    outer loop
      vertex 4.92388 4.38268 2
      vertex 5 4 4
      vertex 5 4 2
    endloop
  endfacet
  facet normal -0.195089 0.980786 0
    outer loop
      vertex 1 5 2
      vertex 0.617316 4.92388 4
      vertex 1 5 4
    endloop
  endfacet
  facet normal -0.195089 0.980786 0
    outer loop
      vertex 0.617316 4.92388 4
      vertex 1 5 2
      vertex 0.617316 4.92388 2
    endloop
  endfacet
  facet normal 0.831454 -0.555593 0
    outer loop
      vertex 4.70711 10.2929 4
      vertex 4.92388 10.6173 2
      vertex 4.92388 10.6173 4
    endloop
  endfacet
  facet normal 0.831454 -0.555593 0
    outer loop
      vertex 4.92388 10.6173 2
      vertex 4.70711 10.2929 4
      vertex 4.70711 10.2929 2
    endloop
  endfacet
  facet normal -0.980787 -0.195082 0
    outer loop
      vertex 0.0761204 10.6173 2
      vertex 0 11 4
      vertex 0 11 2
    endloop
  endfacet
  facet normal -0.980787 -0.195082 0
    outer loop
      vertex 0 11 4
      vertex 0.0761204 10.6173 2
      vertex 0.0761204 10.6173 4
    endloop
  endfacet
  facet normal -0.831453 0.555596 0
    outer loop
      vertex 0.0761204 14.3827 2
      vertex 0.292892 14.7071 4
      vertex 0.292892 14.7071 2
    endloop
  endfacet
  facet normal -0.831453 0.555596 0
    outer loop
      vertex 0.292892 14.7071 4
      vertex 0.0761204 14.3827 2
      vertex 0.0761204 14.3827 4
    endloop
  endfacet
  facet normal 0.831454 0.555593 0
    outer loop
      vertex 4.92388 14.3827 4
      vertex 4.70711 14.7071 2
      vertex 4.70711 14.7071 4
    endloop
  endfacet
  facet normal 0.831454 0.555593 0
    outer loop
      vertex 4.70711 14.7071 2
      vertex 4.92388 14.3827 4
      vertex 4.92388 14.3827 2
    endloop
  endfacet
  facet normal 0.555611 0.831443 -0
    outer loop
      vertex 4.70711 14.7071 2
      vertex 4.38268 14.9239 4
      vertex 4.70711 14.7071 4
    endloop
  endfacet
  facet normal 0.555611 0.831443 0
    outer loop
      vertex 4.38268 14.9239 4
      vertex 4.70711 14.7071 2
      vertex 4.38268 14.9239 2
    endloop
  endfacet
  facet normal 1 -0 0
    outer loop
      vertex 5 11 4
      vertex 5 14 2
      vertex 5 14 4
    endloop
  endfacet
  facet normal 1 0 0
    outer loop
      vertex 5 14 2
      vertex 5 11 4
      vertex 5 11 2
    endloop
  endfacet
  facet normal 0.980787 -0.195081 0
    outer loop
      vertex 4.92388 10.6173 4
      vertex 5 11 2
      vertex 5 11 4
    endloop
  endfacet
  facet normal 0.980787 -0.195081 0
    outer loop
      vertex 5 11 2
      vertex 4.92388 10.6173 4
      vertex 4.92388 10.6173 2
    endloop
  endfacet
  facet normal 0 -1 0
    outer loop
      vertex 0.999999 10 2
      vertex 4 10 4
      vertex 0.999999 10 4
    endloop
  endfacet
  facet normal 0 -1 -0
    outer loop
      vertex 4 10 4
      vertex 0.999999 10 2
      vertex 4 10 2
    endloop
  endfacet
  facet normal 0.195042 -0.980795 0
    outer loop
      vertex 4 10 2
      vertex 4.38268 10.0761 4
      vertex 4 10 4
    endloop
  endfacet
  facet normal 0.195042 -0.980795 0
    outer loop
      vertex 4.38268 10.0761 4
      vertex 4 10 2
      vertex 4.38268 10.0761 2
    endloop
  endfacet
  facet normal -0.831453 -0.555596 0
    outer loop
      vertex 0.292892 10.2929 2
      vertex 0.0761204 10.6173 4
      vertex 0.0761204 10.6173 2
    endloop
  endfacet
  facet normal -0.831453 -0.555596 0
    outer loop
      vertex 0.0761204 10.6173 4
      vertex 0.292892 10.2929 2
      vertex 0.292892 10.2929 4
    endloop
  endfacet
  facet normal 0 0 1
    outer loop
      vertex 4 15 4
      vertex 5 14 4
      vertex 4.92388 14.3827 4
    endloop
  endfacet
  facet normal 0 0 1
    outer loop
      vertex 5 14 4
      vertex 4 15 4
      vertex 5 11 4
    endloop
  endfacet
  facet normal 0 0 1
    outer loop
      vertex 4 15 4
      vertex 4.92388 14.3827 4
      vertex 4.70711 14.7071 4
    endloop
  endfacet
  facet normal 0 0 1
    outer loop
      vertex 4 10 4
      vertex 5 11 4
      vertex 4 15 4
    endloop
  endfacet
  facet normal 0 0 1
    outer loop
      vertex 4 15 4
      vertex 4.70711 14.7071 4
      vertex 4.38268 14.9239 4
    endloop
  endfacet
  facet normal 0 0 1
    outer loop
      vertex 5 11 4
      vertex 4 10 4
      vertex 4.92388 10.6173 4
    endloop
  endfacet
  facet normal 0 0 1
    outer loop
      vertex 4.92388 10.6173 4
      vertex 4 10 4
      vertex 4.70711 10.2929 4
    endloop
  endfacet
  facet normal 0 0 1
    outer loop
      vertex 4.70711 10.2929 4
      vertex 4 10 4
      vertex 4.38268 10.0761 4
    endloop
  endfacet
  facet normal -0 0 1
    outer loop
      vertex 1 15 4
      vertex 4 10 4
      vertex 4 15 4
    endloop
  endfacet
  facet normal 0 0 1
    outer loop
      vertex 1 15 4
      vertex 0.999999 10 4
      vertex 4 10 4
    endloop
  endfacet
  facet normal 0 0 1
    outer loop
      vertex 0 14 4
      vertex 1 15 4
      vertex 0.617316 14.9239 4
    endloop
  endfacet
  facet normal 0 0 1
    outer loop
      vertex 1 15 4
      vertex 0 14 4
      vertex 0.999999 10 4
    endloop
  endfacet
  facet normal 0 0 1
    outer loop
      vertex 0 14 4
      vertex 0.617316 14.9239 4
      vertex 0.292892 14.7071 4
    endloop
  endfacet
  facet normal -0 0 1
    outer loop
      vertex 0 11 4
      vertex 0.999999 10 4
      vertex 0 14 4
    endloop
  endfacet
  facet normal 0 0 1
    outer loop
      vertex 0 14 4
      vertex 0.292892 14.7071 4
      vertex 0.0761204 14.3827 4
    endloop
  endfacet
  facet normal 0 0 1
    outer loop
      vertex 0.999999 10 4
      vertex 0 11 4
      vertex 0.617316 10.0761 4
    endloop
  endfacet
  facet normal 0 0 1
    outer loop
      vertex 0.617316 10.0761 4
      vertex 0 11 4
      vertex 0.292892 10.2929 4
    endloop
  endfacet
  facet normal 0 0 1
    outer loop
      vertex 0.292892 10.2929 4
      vertex 0 11 4
      vertex 0.0761204 10.6173 4
    endloop
  endfacet
  facet normal -0.980787 0.195082 0
    outer loop
      vertex 0 14 2
      vertex 0.0761204 14.3827 4
      vertex 0.0761204 14.3827 2
    endloop
  endfacet
  facet normal -0.980787 0.195082 0
    outer loop
      vertex 0.0761204 14.3827 4
      vertex 0 14 2
      vertex 0 14 4
    endloop
  endfacet
  facet normal 0.195042 0.980795 -0
    outer loop
      vertex 4.38268 14.9239 2
      vertex 4 15 4
      vertex 4.38268 14.9239 4
    endloop
  endfacet
  facet normal 0.195042 0.980795 0
    outer loop
      vertex 4 15 4
      vertex 4.38268 14.9239 2
      vertex 4 15 2
    endloop
  endfacet
  facet normal 0.555611 -0.831443 0
    outer loop
      vertex 4.38268 10.0761 2
      vertex 4.70711 10.2929 4
      vertex 4.38268 10.0761 4
    endloop
  endfacet
  facet normal 0.555611 -0.831443 0
    outer loop
      vertex 4.70711 10.2929 4
      vertex 4.38268 10.0761 2
      vertex 4.70711 10.2929 2
    endloop
  endfacet
  facet normal -0.555618 -0.831438 0
    outer loop
      vertex 0.292892 10.2929 2
      vertex 0.617316 10.0761 4
      vertex 0.292892 10.2929 4
    endloop
  endfacet
  facet normal -0.555618 -0.831438 -0
    outer loop
      vertex 0.617316 10.0761 4
      vertex 0.292892 10.2929 2
      vertex 0.617316 10.0761 2
    endloop
  endfacet
  facet normal -0.19504 -0.980795 0
    outer loop
      vertex 0.617316 10.0761 2
      vertex 0.999999 10 4
      vertex 0.617316 10.0761 4
    endloop
  endfacet
  facet normal -0.19504 -0.980795 -0
    outer loop
      vertex 0.999999 10 4
      vertex 0.617316 10.0761 2
      vertex 0.999999 10 2
    endloop
  endfacet
  facet normal -0.555618 0.831438 0
    outer loop
      vertex 0.617316 14.9239 2
      vertex 0.292892 14.7071 4
      vertex 0.617316 14.9239 4
    endloop
  endfacet
  facet normal -0.555618 0.831438 0
    outer loop
      vertex 0.292892 14.7071 4
      vertex 0.617316 14.9239 2
      vertex 0.292892 14.7071 2
    endloop
  endfacet
  facet normal 0.980787 0.195081 0
    outer loop
      vertex 5 14 4
      vertex 4.92388 14.3827 2
      vertex 4.92388 14.3827 4
    endloop
  endfacet
  facet normal 0.980787 0.195081 0
    outer loop
      vertex 4.92388 14.3827 2
      vertex 5 14 4
      vertex 5 14 2
    endloop
  endfacet
  facet normal -0.19504 0.980795 0
    outer loop
      vertex 1 15 2
      vertex 0.617316 14.9239 4
      vertex 1 15 4
    endloop
  endfacet
  facet normal -0.19504 0.980795 0
    outer loop
      vertex 0.617316 14.9239 4
      vertex 1 15 2
      vertex 0.617316 14.9239 2
    endloop
  endfacet
  facet normal 0.831438 -0.555618 0
    outer loop
      vertex 49.7071 0.292892 4
      vertex 49.9239 0.617316 2
      vertex 49.9239 0.617316 4
    endloop
  endfacet
  facet normal 0.831438 -0.555618 0
    outer loop
      vertex 49.9239 0.617316 2
      vertex 49.7071 0.292892 4
      vertex 49.7071 0.292892 2
    endloop
  endfacet
  facet normal -1 0 0
    outer loop
      vertex 45 1 2
      vertex 45 4 4
      vertex 45 4 2
    endloop
  endfacet
  facet normal -1 -0 0
    outer loop
      vertex 45 4 4
      vertex 45 1 2
      vertex 45 1 4
    endloop
  endfacet
  facet normal -0.980795 -0.19504 0
    outer loop
      vertex 45.0761 0.617316 2
      vertex 45 1 4
      vertex 45 1 2
    endloop
  endfacet
  facet normal -0.980795 -0.19504 0
    outer loop
      vertex 45 1 4
      vertex 45.0761 0.617316 2
      vertex 45.0761 0.617316 4
    endloop
  endfacet
  facet normal -0.980795 0.195042 0
    outer loop
      vertex 45 4 2
      vertex 45.0761 4.38268 4
      vertex 45.0761 4.38268 2
    endloop
  endfacet
  facet normal -0.980795 0.195042 0
    outer loop
      vertex 45.0761 4.38268 4
      vertex 45 4 2
      vertex 45 4 4
    endloop
  endfacet
  facet normal -0.831443 0.555611 0
    outer loop
      vertex 45.0761 4.38268 2
      vertex 45.2929 4.70711 4
      vertex 45.2929 4.70711 2
    endloop
  endfacet
  facet normal -0.831443 0.555611 0
    outer loop
      vertex 45.2929 4.70711 4
      vertex 45.0761 4.38268 2
      vertex 45.0761 4.38268 4
    endloop
  endfacet
  facet normal 0.831443 0.555611 0
    outer loop
      vertex 49.9239 4.38268 4
      vertex 49.7071 4.70711 2
      vertex 49.7071 4.70711 4
    endloop
  endfacet
  facet normal 0.831443 0.555611 0
    outer loop
      vertex 49.7071 4.70711 2
      vertex 49.9239 4.38268 4
      vertex 49.9239 4.38268 2
    endloop
  endfacet
  facet normal 0.555593 0.831454 -0
    outer loop
      vertex 49.7071 4.70711 2
      vertex 49.3827 4.92388 4
      vertex 49.7071 4.70711 4
    endloop
  endfacet
  facet normal 0.555593 0.831454 0
    outer loop
      vertex 49.3827 4.92388 4
      vertex 49.7071 4.70711 2
      vertex 49.3827 4.92388 2
    endloop
  endfacet
  facet normal 1 -0 0
    outer loop
      vertex 50 1 4
      vertex 50 4 2
      vertex 50 4 4
    endloop
  endfacet
  facet normal 1 0 0
    outer loop
      vertex 50 4 2
      vertex 50 1 4
      vertex 50 1 2
    endloop
  endfacet
  facet normal 0.980795 -0.19504 0
    outer loop
      vertex 49.9239 0.617316 4
      vertex 50 1 2
      vertex 50 1 4
    endloop
  endfacet
  facet normal 0.980795 -0.19504 0
    outer loop
      vertex 50 1 2
      vertex 49.9239 0.617316 4
      vertex 49.9239 0.617316 2
    endloop
  endfacet
  facet normal 0.195082 -0.980787 0
    outer loop
      vertex 49 0 2
      vertex 49.3827 0.0761204 4
      vertex 49 0 4
    endloop
  endfacet
  facet normal 0.195082 -0.980787 0
    outer loop
      vertex 49.3827 0.0761204 4
      vertex 49 0 2
      vertex 49.3827 0.0761204 2
    endloop
  endfacet
  facet normal -0.831438 -0.555618 0
    outer loop
      vertex 45.2929 0.292892 2
      vertex 45.0761 0.617316 4
      vertex 45.0761 0.617316 2
    endloop
  endfacet
  facet normal -0.831438 -0.555618 0
    outer loop
      vertex 45.0761 0.617316 4
      vertex 45.2929 0.292892 2
      vertex 45.2929 0.292892 4
    endloop
  endfacet
  facet normal 0 0 1
    outer loop
      vertex 49 5 4
      vertex 50 4 4
      vertex 49.9239 4.38268 4
    endloop
  endfacet
  facet normal 0 0 1
    outer loop
      vertex 50 4 4
      vertex 49 5 4
      vertex 50 1 4
    endloop
  endfacet
  facet normal 0 0 1
    outer loop
      vertex 49 5 4
      vertex 49.9239 4.38268 4
      vertex 49.7071 4.70711 4
    endloop
  endfacet
  facet normal 0 0 1
    outer loop
      vertex 49 0 4
      vertex 50 1 4
      vertex 49 5 4
    endloop
  endfacet
  facet normal 0 0 1
    outer loop
      vertex 49 5 4
      vertex 49.7071 4.70711 4
      vertex 49.3827 4.92388 4
    endloop
  endfacet
  facet normal 0 0 1
    outer loop
      vertex 50 1 4
      vertex 49 0 4
      vertex 49.9239 0.617316 4
    endloop
  endfacet
  facet normal 0 0 1
    outer loop
      vertex 49.9239 0.617316 4
      vertex 49 0 4
      vertex 49.7071 0.292892 4
    endloop
  endfacet
  facet normal 0 0 1
    outer loop
      vertex 49.7071 0.292892 4
      vertex 49 0 4
      vertex 49.3827 0.0761204 4
    endloop
  endfacet
  facet normal -0 0 1
    outer loop
      vertex 46 5 4
      vertex 49 0 4
      vertex 49 5 4
    endloop
  endfacet
  facet normal 0 0 1
    outer loop
      vertex 46 5 4
      vertex 46 0 4
      vertex 49 0 4
    endloop
  endfacet
  facet normal 0 0 1
    outer loop
      vertex 45 4 4
      vertex 46 5 4
      vertex 45.6173 4.92388 4
    endloop
  endfacet
  facet normal 0 0 1
    outer loop
      vertex 46 5 4
      vertex 45 4 4
      vertex 46 0 4
    endloop
  endfacet
  facet normal 0 0 1
    outer loop
      vertex 45 4 4
      vertex 45.6173 4.92388 4
      vertex 45.2929 4.70711 4
    endloop
  endfacet
  facet normal -0 0 1
    outer loop
      vertex 45 1 4
      vertex 46 0 4
      vertex 45 4 4
    endloop
  endfacet
  facet normal 0 0 1
    outer loop
      vertex 45 4 4
      vertex 45.2929 4.70711 4
      vertex 45.0761 4.38268 4
    endloop
  endfacet
  facet normal 0 0 1
    outer loop
      vertex 46 0 4
      vertex 45 1 4
      vertex 45.6173 0.0761204 4
    endloop
  endfacet
  facet normal 0 0 1
    outer loop
      vertex 45.6173 0.0761204 4
      vertex 45 1 4
      vertex 45.2929 0.292892 4
    endloop
  endfacet
  facet normal 0 0 1
    outer loop
      vertex 45.2929 0.292892 4
      vertex 45 1 4
      vertex 45.0761 0.617316 4
    endloop
  endfacet
  facet normal 0 1 -0
    outer loop
      vertex 49 5 2
      vertex 46 5 4
      vertex 49 5 4
    endloop
  endfacet
  facet normal 0 1 0
    outer loop
      vertex 46 5 4
      vertex 49 5 2
      vertex 46 5 2
    endloop
  endfacet
  facet normal 0.195081 0.980787 -0
    outer loop
      vertex 49.3827 4.92388 2
      vertex 49 5 4
      vertex 49.3827 4.92388 4
    endloop
  endfacet
  facet normal 0.195081 0.980787 0
    outer loop
      vertex 49 5 4
      vertex 49.3827 4.92388 2
      vertex 49 5 2
    endloop
  endfacet
  facet normal 0.555596 -0.831453 0
    outer loop
      vertex 49.3827 0.0761204 2
      vertex 49.7071 0.292892 4
      vertex 49.3827 0.0761204 4
    endloop
  endfacet
  facet normal 0.555596 -0.831453 0
    outer loop
      vertex 49.7071 0.292892 4
      vertex 49.3827 0.0761204 2
      vertex 49.7071 0.292892 2
    endloop
  endfacet
  facet normal -0.555596 -0.831453 0
    outer loop
      vertex 45.2929 0.292892 2
      vertex 45.6173 0.0761204 4
      vertex 45.2929 0.292892 4
    endloop
  endfacet
  facet normal -0.555596 -0.831453 -0
    outer loop
      vertex 45.6173 0.0761204 4
      vertex 45.2929 0.292892 2
      vertex 45.6173 0.0761204 2
    endloop
  endfacet
  facet normal -0.195082 -0.980787 0
    outer loop
      vertex 45.6173 0.0761204 2
      vertex 46 0 4
      vertex 45.6173 0.0761204 4
    endloop
  endfacet
  facet normal -0.195082 -0.980787 -0
    outer loop
      vertex 46 0 4
      vertex 45.6173 0.0761204 2
      vertex 46 0 2
    endloop
  endfacet
  facet normal -0.555593 0.831454 0
    outer loop
      vertex 45.6173 4.92388 2
      vertex 45.2929 4.70711 4
      vertex 45.6173 4.92388 4
    endloop
  endfacet
  facet normal -0.555593 0.831454 0
    outer loop
      vertex 45.2929 4.70711 4
      vertex 45.6173 4.92388 2
      vertex 45.2929 4.70711 2
    endloop
  endfacet
  facet normal 0.980795 0.195042 0
    outer loop
      vertex 50 4 4
      vertex 49.9239 4.38268 2
      vertex 49.9239 4.38268 4
    endloop
  endfacet
  facet normal 0.980795 0.195042 0
    outer loop
      vertex 49.9239 4.38268 2
      vertex 50 4 4
      vertex 50 4 2
    endloop
  endfacet
  facet normal -0.195081 0.980787 0
    outer loop
      vertex 46 5 2
      vertex 45.6173 4.92388 4
      vertex 46 5 4
    endloop
  endfacet
  facet normal -0.195081 0.980787 0
    outer loop
      vertex 45.6173 4.92388 4
      vertex 46 5 2
      vertex 45.6173 4.92388 2
    endloop
  endfacet
  facet normal 0.980797 0.195032 0
    outer loop
      vertex 50 14 4
      vertex 49.9239 14.3827 2
      vertex 49.9239 14.3827 4
    endloop
  endfacet
  facet normal 0.980797 0.195032 0
    outer loop
      vertex 49.9239 14.3827 2
      vertex 50 14 4
      vertex 50 14 2
    endloop
  endfacet
  facet normal 0.831419 -0.555646 0
    outer loop
      vertex 49.7071 10.2929 4
      vertex 49.9239 10.6173 2
      vertex 49.9239 10.6173 4
    endloop
  endfacet
  facet normal 0.831419 -0.555646 0
    outer loop
      vertex 49.9239 10.6173 2
      vertex 49.7071 10.2929 4
      vertex 49.7071 10.2929 2
    endloop
  endfacet
  facet normal -1 0 0
    outer loop
      vertex 45 11 2
      vertex 45 14 4
      vertex 45 14 2
    endloop
  endfacet
  facet normal -1 -0 0
    outer loop
      vertex 45 14 4
      vertex 45 11 2
      vertex 45 11 4
    endloop
  endfacet
  facet normal -0.980797 -0.195032 0
    outer loop
      vertex 45.0761 10.6173 2
      vertex 45 11 4
      vertex 45 11 2
    endloop
  endfacet
  facet normal -0.980797 -0.195032 0
    outer loop
      vertex 45 11 4
      vertex 45.0761 10.6173 2
      vertex 45.0761 10.6173 4
    endloop
  endfacet
  facet normal -0.980797 0.195032 0
    outer loop
      vertex 45 14 2
      vertex 45.0761 14.3827 4
      vertex 45.0761 14.3827 2
    endloop
  endfacet
  facet normal -0.980797 0.195032 0
    outer loop
      vertex 45.0761 14.3827 4
      vertex 45 14 2
      vertex 45 14 4
    endloop
  endfacet
  facet normal -0.831419 0.555646 0
    outer loop
      vertex 45.0761 14.3827 2
      vertex 45.2929 14.7071 4
      vertex 45.2929 14.7071 2
    endloop
  endfacet
  facet normal -0.831419 0.555646 0
    outer loop
      vertex 45.2929 14.7071 4
      vertex 45.0761 14.3827 2
      vertex 45.0761 14.3827 4
    endloop
  endfacet
  facet normal 0.831419 0.555646 0
    outer loop
      vertex 49.9239 14.3827 4
      vertex 49.7071 14.7071 2
      vertex 49.7071 14.7071 4
    endloop
  endfacet
  facet normal 0.831419 0.555646 0
    outer loop
      vertex 49.7071 14.7071 2
      vertex 49.9239 14.3827 4
      vertex 49.9239 14.3827 2
    endloop
  endfacet
  facet normal 0.555646 0.831419 -0
    outer loop
      vertex 49.7071 14.7071 2
      vertex 49.3827 14.9239 4
      vertex 49.7071 14.7071 4
    endloop
  endfacet
  facet normal 0.555646 0.831419 0
    outer loop
      vertex 49.3827 14.9239 4
      vertex 49.7071 14.7071 2
      vertex 49.3827 14.9239 2
    endloop
  endfacet
  facet normal 1 -0 0
    outer loop
      vertex 50 11 4
      vertex 50 14 2
      vertex 50 14 4
    endloop
  endfacet
  facet normal 1 0 0
    outer loop
      vertex 50 14 2
      vertex 50 11 4
      vertex 50 11 2
    endloop
  endfacet
  facet normal 0.980797 -0.195032 0
    outer loop
      vertex 49.9239 10.6173 4
      vertex 50 11 2
      vertex 50 11 4
    endloop
  endfacet
  facet normal 0.980797 -0.195032 0
    outer loop
      vertex 50 11 2
      vertex 49.9239 10.6173 4
      vertex 49.9239 10.6173 2
    endloop
  endfacet
  facet normal 0 -1 0
    outer loop
      vertex 46 10 2
      vertex 49 10 4
      vertex 46 10 4
    endloop
  endfacet
  facet normal 0 -1 -0
    outer loop
      vertex 49 10 4
      vertex 46 10 2
      vertex 49 10 2
    endloop
  endfacet
  facet normal 0.195032 -0.980797 0
    outer loop
      vertex 49 10 2
      vertex 49.3827 10.0761 4
      vertex 49 10 4
    endloop
  endfacet
  facet normal 0.195032 -0.980797 0
    outer loop
      vertex 49.3827 10.0761 4
      vertex 49 10 2
      vertex 49.3827 10.0761 2
    endloop
  endfacet
  facet normal -0.831419 -0.555646 0
    outer loop
      vertex 45.2929 10.2929 2
      vertex 45.0761 10.6173 4
      vertex 45.0761 10.6173 2
    endloop
  endfacet
  facet normal -0.831419 -0.555646 0
    outer loop
      vertex 45.0761 10.6173 4
      vertex 45.2929 10.2929 2
      vertex 45.2929 10.2929 4
    endloop
  endfacet
  facet normal 0 0 1
    outer loop
      vertex 49 15 4
      vertex 50 14 4
      vertex 49.9239 14.3827 4
    endloop
  endfacet
  facet normal 0 0 1
    outer loop
      vertex 50 14 4
      vertex 49 15 4
      vertex 50 11 4
    endloop
  endfacet
  facet normal 0 0 1
    outer loop
      vertex 49 15 4
      vertex 49.9239 14.3827 4
      vertex 49.7071 14.7071 4
    endloop
  endfacet
  facet normal 0 0 1
    outer loop
      vertex 49 10 4
      vertex 50 11 4
      vertex 49 15 4
    endloop
  endfacet
  facet normal 0 0 1
    outer loop
      vertex 49 15 4
      vertex 49.7071 14.7071 4
      vertex 49.3827 14.9239 4
    endloop
  endfacet
  facet normal 0 0 1
    outer loop
      vertex 50 11 4
      vertex 49 10 4
      vertex 49.9239 10.6173 4
    endloop
  endfacet
  facet normal 0 0 1
    outer loop
      vertex 49.9239 10.6173 4
      vertex 49 10 4
      vertex 49.7071 10.2929 4
    endloop
  endfacet
  facet normal 0 0 1
    outer loop
      vertex 49.7071 10.2929 4
      vertex 49 10 4
      vertex 49.3827 10.0761 4
    endloop
  endfacet
  facet normal -0 0 1
    outer loop
      vertex 46 15 4
      vertex 49 10 4
      vertex 49 15 4
    endloop
  endfacet
  facet normal 0 0 1
    outer loop
      vertex 46 15 4
      vertex 46 10 4
      vertex 49 10 4
    endloop
  endfacet
  facet normal 0 0 1
    outer loop
      vertex 45 14 4
      vertex 46 15 4
      vertex 45.6173 14.9239 4
    endloop
  endfacet
  facet normal 0 0 1
    outer loop
      vertex 46 15 4
      vertex 45 14 4
      vertex 46 10 4
    endloop
  endfacet
  facet normal 0 0 1
    outer loop
      vertex 45 14 4
      vertex 45.6173 14.9239 4
      vertex 45.2929 14.7071 4
    endloop
  endfacet
  facet normal -0 0 1
    outer loop
      vertex 45 11 4
      vertex 46 10 4
      vertex 45 14 4
    endloop
  endfacet
  facet normal 0 0 1
    outer loop
      vertex 45 14 4
      vertex 45.2929 14.7071 4
      vertex 45.0761 14.3827 4
    endloop
  endfacet
  facet normal 0 0 1
    outer loop
      vertex 46 10 4
      vertex 45 11 4
      vertex 45.6173 10.0761 4
    endloop
  endfacet
  facet normal 0 0 1
    outer loop
      vertex 45.6173 10.0761 4
      vertex 45 11 4
      vertex 45.2929 10.2929 4
    endloop
  endfacet
  facet normal 0 0 1
    outer loop
      vertex 45.2929 10.2929 4
      vertex 45 11 4
      vertex 45.0761 10.6173 4
    endloop
  endfacet
  facet normal 0.195032 0.980797 -0
    outer loop
      vertex 49.3827 14.9239 2
      vertex 49 15 4
      vertex 49.3827 14.9239 4
    endloop
  endfacet
  facet normal 0.195032 0.980797 0
    outer loop
      vertex 49 15 4
      vertex 49.3827 14.9239 2
      vertex 49 15 2
    endloop
  endfacet
  facet normal 0.555646 -0.831419 0
    outer loop
      vertex 49.3827 10.0761 2
      vertex 49.7071 10.2929 4
      vertex 49.3827 10.0761 4
    endloop
  endfacet
  facet normal 0.555646 -0.831419 0
    outer loop
      vertex 49.7071 10.2929 4
      vertex 49.3827 10.0761 2
      vertex 49.7071 10.2929 2
    endloop
  endfacet
  facet normal -0.555646 -0.831419 0
    outer loop
      vertex 45.2929 10.2929 2
      vertex 45.6173 10.0761 4
      vertex 45.2929 10.2929 4
    endloop
  endfacet
  facet normal -0.555646 -0.831419 -0
    outer loop
      vertex 45.6173 10.0761 4
      vertex 45.2929 10.2929 2
      vertex 45.6173 10.0761 2
    endloop
  endfacet
  facet normal -0.195032 -0.980797 0
    outer loop
      vertex 45.6173 10.0761 2
      vertex 46 10 4
      vertex 45.6173 10.0761 4
    endloop
  endfacet
  facet normal -0.195032 -0.980797 -0
    outer loop
      vertex 46 10 4
      vertex 45.6173 10.0761 2
      vertex 46 10 2
    endloop
  endfacet
  facet normal -0.555646 0.831419 0
    outer loop
      vertex 45.6173 14.9239 2
      vertex 45.2929 14.7071 4
      vertex 45.6173 14.9239 4
    endloop
  endfacet
  facet normal -0.555646 0.831419 0
    outer loop
      vertex 45.2929 14.7071 4
      vertex 45.6173 14.9239 2
      vertex 45.2929 14.7071 2
    endloop
  endfacet
  facet normal -0.195032 0.980797 0
    outer loop
      vertex 46 15 2
      vertex 45.6173 14.9239 4
      vertex 46 15 4
    endloop
  endfacet
  facet normal -0.195032 0.980797 0
    outer loop
      vertex 45.6173 14.9239 4
      vertex 46 15 2
      vertex 45.6173 14.9239 2
    endloop
  endfacet
endsolid OpenSCAD_Model
