solid OpenSCAD_Model
  facet normal 0.998796 0.0490615 0
    outer loop
      vertex 7.5 0 2
      vertex 7.46389 0.735128 0
      vertex 7.46389 0.735128 2
    endloop
  endfacet
  facet normal 0.998796 0.0490615 0
    outer loop
      vertex 7.46389 0.735128 0
      vertex 7.5 0 2
      vertex 7.5 0 0
    endloop
  endfacet
  facet normal -0.998796 0.0490615 0
    outer loop
      vertex -7.5 0 0
      vertex -7.46389 0.735128 2
      vertex -7.46389 0.735128 0
    endloop
  endfacet
  facet normal -0.998796 0.0490615 0
    outer loop
      vertex -7.46389 0.735128 2
      vertex -7.5 0 0
      vertex -7.5 0 2
    endloop
  endfacet
  facet normal 0.0490615 0.998796 -0
    outer loop
      vertex 0.735128 7.46389 0
      vertex 0 7.5 2
      vertex 0.735128 7.46389 2
    endloop
  endfacet
  facet normal 0.0490615 0.998796 0
    outer loop
      vertex 0 7.5 2
      vertex 0.735128 7.46389 0
      vertex 0 7.5 0
    endloop
  endfacet
  facet normal 0.740949 0.671562 0
    outer loop
      vertex 5.79758 4.75795 2
      vertex 5.3033 5.3033 0
      vertex 5.3033 5.3033 2
    endloop
  endfacet
  facet normal 0.740949 0.671562 0
    outer loop
      vertex 5.3033 5.3033 0
      vertex 5.79758 4.75795 2
      vertex 5.79758 4.75795 0
    endloop
  endfacet
  facet normal -0.671562 0.740949 0
    outer loop
      vertex -4.75795 5.79758 0
      vertex -5.3033 5.3033 2
      vertex -4.75795 5.79758 2
    endloop
  endfacet
  facet normal -0.671562 0.740949 0
    outer loop
      vertex -5.3033 5.3033 2
      vertex -4.75795 5.79758 0
      vertex -5.3033 5.3033 0
    endloop
  endfacet
  facet normal -0.336883 0.941547 0
    outer loop
      vertex -2.17713 7.17705 0
      vertex -2.87012 6.9291 2
      vertex -2.17713 7.17705 2
    endloop
  endfacet
  facet normal -0.336883 0.941547 0
    outer loop
      vertex -2.87012 6.9291 2
      vertex -2.17713 7.17705 0
      vertex -2.87012 6.9291 0
    endloop
  endfacet
  facet normal 0.903988 0.427558 0
    outer loop
      vertex 6.9291 2.87012 2
      vertex 6.61441 3.53547 0
      vertex 6.61441 3.53547 2
    endloop
  endfacet
  facet normal 0.903988 0.427558 0
    outer loop
      vertex 6.61441 3.53547 0
      vertex 6.9291 2.87012 2
      vertex 6.9291 2.87012 0
    endloop
  endfacet
  facet normal 0.85773 0.5141 0
    outer loop
      vertex 6.61441 3.53547 2
      vertex 6.23602 4.16678 0
      vertex 6.23602 4.16678 2
    endloop
  endfacet
  facet normal 0.85773 0.5141 0
    outer loop
      vertex 6.23602 4.16678 0
      vertex 6.61441 3.53547 2
      vertex 6.61441 3.53547 0
    endloop
  endfacet
  facet normal 0.427558 0.903988 -0
    outer loop
      vertex 3.53547 6.61441 0
      vertex 2.87012 6.9291 2
      vertex 3.53547 6.61441 2
    endloop
  endfacet
  facet normal 0.427558 0.903988 0
    outer loop
      vertex 2.87012 6.9291 2
      vertex 3.53547 6.61441 0
      vertex 2.87012 6.9291 0
    endloop
  endfacet
  facet normal 0.595698 0.803209 -0
    outer loop
      vertex 4.75795 5.79758 0
      vertex 4.16678 6.23602 2
      vertex 4.75795 5.79758 2
    endloop
  endfacet
  facet normal 0.595698 0.803209 0
    outer loop
      vertex 4.16678 6.23602 2
      vertex 4.75795 5.79758 0
      vertex 4.16678 6.23602 0
    endloop
  endfacet
  facet normal -0.903988 0.427558 0
    outer loop
      vertex -6.9291 2.87012 0
      vertex -6.61441 3.53547 2
      vertex -6.61441 3.53547 0
    endloop
  endfacet
  facet normal -0.903988 0.427558 0
    outer loop
      vertex -6.61441 3.53547 2
      vertex -6.9291 2.87012 0
      vertex -6.9291 2.87012 2
    endloop
  endfacet
  facet normal -0.146735 0.989176 0
    outer loop
      vertex -0.735128 7.46389 0
      vertex -1.46318 7.35589 2
      vertex -0.735128 7.46389 2
    endloop
  endfacet
  facet normal -0.146735 0.989176 0
    outer loop
      vertex -1.46318 7.35589 2
      vertex -0.735128 7.46389 0
      vertex -1.46318 7.35589 0
    endloop
  endfacet
  facet normal 0 0 -1
    outer loop
      vertex 7.46389 -0.735128 0
      vertex 7.46389 0.735128 0
      vertex 7.5 0 0
    endloop
  endfacet
  facet normal 0 0 -1
    outer loop
      vertex 7.35589 -1.46318 0
      vertex 7.46389 0.735128 0
      vertex 7.46389 -0.735128 0
    endloop
  endfacet
  facet normal 0 0 -1
    outer loop
      vertex 7.35589 -1.46318 0
      vertex 7.35589 1.46318 0
      vertex 7.46389 0.735128 0
    endloop
  endfacet
  facet normal 0 0 -1
    outer loop
      vertex 7.17705 -2.17713 0
      vertex 7.35589 1.46318 0
      vertex 7.35589 -1.46318 0
    endloop
  endfacet
  facet normal 0 0 -1
    outer loop
      vertex 7.17705 -2.17713 0
      vertex 7.17705 2.17713 0
      vertex 7.35589 1.46318 0
    endloop
  endfacet
  facet normal 0 0 -1
    outer loop
      vertex 6.9291 -2.87012 0
      vertex 7.17705 2.17713 0
      vertex 7.17705 -2.17713 0
    endloop
  endfacet
  facet normal 0 0 -1
    outer loop
      vertex 6.9291 -2.87012 0
      vertex 6.9291 2.87012 0
      vertex 7.17705 2.17713 0
    endloop
  endfacet
  facet normal 0 0 -1
    outer loop
      vertex 6.61441 -3.53547 0
      vertex 6.9291 2.87012 0
      vertex 6.9291 -2.87012 0
    endloop
  endfacet
  facet normal 0 0 -1
    outer loop
      vertex 6.61441 -3.53547 0
      vertex 6.61441 3.53547 0
      vertex 6.9291 2.87012 0
    endloop
  endfacet
  facet normal 0 0 -1
    outer loop
      vertex 6.23602 -4.16678 0
      vertex 6.61441 3.53547 0
      vertex 6.61441 -3.53547 0
    endloop
  endfacet
  facet normal 0 0 -1
    outer loop
      vertex 6.23602 -4.16678 0
      vertex 6.23602 4.16678 0
      vertex 6.61441 3.53547 0
    endloop
  endfacet
  facet normal 0 0 -1
    outer loop
      vertex 5.79758 -4.75795 0
      vertex 6.23602 4.16678 0
      vertex 6.23602 -4.16678 0
    endloop
  endfacet
  facet normal 0 0 -1
    outer loop
      vertex 5.79758 -4.75795 0
      vertex 5.79758 4.75795 0
      vertex 6.23602 4.16678 0
    endloop
  endfacet
  facet normal 0 0 -1
    outer loop
      vertex 5.3033 -5.3033 0
      vertex 5.79758 4.75795 0
      vertex 5.79758 -4.75795 0
    endloop
  endfacet
  facet normal 0 0 -1
    outer loop
      vertex 5.3033 -5.3033 0
      vertex 5.3033 5.3033 0
      vertex 5.79758 4.75795 0
    endloop
  endfacet
  facet normal 0 0 -1
    outer loop
      vertex 4.75795 -5.79758 0
      vertex 5.3033 5.3033 0
      vertex 5.3033 -5.3033 0
    endloop
  endfacet
  facet normal 0 0 -1
    outer loop
      vertex 4.75795 -5.79758 0
      vertex 4.75795 5.79758 0
      vertex 5.3033 5.3033 0
    endloop
  endfacet
  facet normal 0 0 -1
    outer loop
      vertex 4.16678 -6.23602 0
      vertex 4.75795 5.79758 0
      vertex 4.75795 -5.79758 0
    endloop
  endfacet
  facet normal 0 0 -1
    outer loop
      vertex 4.16678 -6.23602 0
      vertex 4.16678 6.23602 0
      vertex 4.75795 5.79758 0
    endloop
  endfacet
  facet normal 0 0 -1
    outer loop
      vertex 3.53547 -6.61441 0
      vertex 4.16678 6.23602 0
      vertex 4.16678 -6.23602 0
    endloop
  endfacet
  facet normal 0 0 -1
    outer loop
      vertex 3.53547 -6.61441 0
      vertex 3.53547 6.61441 0
      vertex 4.16678 6.23602 0
    endloop
  endfacet
  facet normal 0 0 -1
    outer loop
      vertex 2.87012 -6.9291 0
      vertex 3.53547 6.61441 0
      vertex 3.53547 -6.61441 0
    endloop
  endfacet
  facet normal 0 0 -1
    outer loop
      vertex 2.87012 -6.9291 0
      vertex 2.87012 6.9291 0
      vertex 3.53547 6.61441 0
    endloop
  endfacet
  facet normal 0 0 -1
    outer loop
      vertex 2.17713 -7.17705 0
      vertex 2.87012 6.9291 0
      vertex 2.87012 -6.9291 0
    endloop
  endfacet
  facet normal 0 0 -1
    outer loop
      vertex 2.17713 -7.17705 0
      vertex 2.17713 7.17705 0
      vertex 2.87012 6.9291 0
    endloop
  endfacet
  facet normal 0 0 -1
    outer loop
      vertex 1.46318 -7.35589 0
      vertex 2.17713 7.17705 0
      vertex 2.17713 -7.17705 0
    endloop
  endfacet
  facet normal 0 0 -1
    outer loop
      vertex 1.46318 -7.35589 0
      vertex 1.46318 7.35589 0
      vertex 2.17713 7.17705 0
    endloop
  endfacet
  facet normal 0 0 -1
    outer loop
      vertex 0.735128 -7.46389 0
      vertex 1.46318 7.35589 0
      vertex 1.46318 -7.35589 0
    endloop
  endfacet
  facet normal 0 0 -1
    outer loop
      vertex 0.735128 -7.46389 0
      vertex 0.735128 7.46389 0
      vertex 1.46318 7.35589 0
    endloop
  endfacet
  facet normal 0 0 -1
    outer loop
      vertex 0 -7.5 0
      vertex 0.735128 7.46389 0
      vertex 0.735128 -7.46389 0
    endloop
  endfacet
  facet normal 0 0 -1
    outer loop
      vertex 0 -7.5 0
      vertex 0 7.5 0
      vertex 0.735128 7.46389 0
    endloop
  endfacet
  facet normal 0 0 -1
    outer loop
      vertex -0.735128 -7.46389 0
      vertex 0 7.5 0
      vertex 0 -7.5 0
    endloop
  endfacet
  facet normal 0 0 -1
    outer loop
      vertex -0.735128 -7.46389 0
      vertex -0.735128 7.46389 0
      vertex 0 7.5 0
    endloop
  endfacet
  facet normal 0 0 -1
    outer loop
      vertex -1.46318 -7.35589 0
      vertex -0.735128 7.46389 0
      vertex -0.735128 -7.46389 0
    endloop
  endfacet
  facet normal 0 0 -1
    outer loop
      vertex -1.46318 -7.35589 0
      vertex -1.46318 7.35589 0
      vertex -0.735128 7.46389 0
    endloop
  endfacet
  facet normal 0 0 -1
    outer loop
      vertex -2.17713 -7.17705 0
      vertex -1.46318 7.35589 0
      vertex -1.46318 -7.35589 0
    endloop
  endfacet
  facet normal 0 0 -1
    outer loop
      vertex -2.17713 -7.17705 0
      vertex -2.17713 7.17705 0
      vertex -1.46318 7.35589 0
    endloop
  endfacet
  facet normal 0 0 -1
    outer loop
      vertex -2.87012 -6.9291 0
      vertex -2.17713 7.17705 0
      vertex -2.17713 -7.17705 0
    endloop
  endfacet
  facet normal 0 0 -1
    outer loop
      vertex -2.87012 -6.9291 0
      vertex -2.87012 6.9291 0
      vertex -2.17713 7.17705 0
    endloop
  endfacet
  facet normal 0 0 -1
    outer loop
      vertex -3.53547 -6.61441 0
      vertex -2.87012 6.9291 0
      vertex -2.87012 -6.9291 0
    endloop
  endfacet
  facet normal 0 0 -1
    outer loop
      vertex -3.53547 -6.61441 0
      vertex -3.53547 6.61441 0
      vertex -2.87012 6.9291 0
    endloop
  endfacet
  facet normal 0 0 -1
    outer loop
      vertex -4.16678 -6.23602 0
      vertex -3.53547 6.61441 0
      vertex -3.53547 -6.61441 0
    endloop
  endfacet
  facet normal 0 0 -1
    outer loop
      vertex -4.16678 -6.23602 0
      vertex -4.16678 6.23602 0
      vertex -3.53547 6.61441 0
    endloop
  endfacet
  facet normal 0 0 -1
    outer loop
      vertex -4.75795 -5.79758 0
      vertex -4.16678 6.23602 0
      vertex -4.16678 -6.23602 0
    endloop
  endfacet
  facet normal 0 0 -1
    outer loop
      vertex -4.75795 -5.79758 0
      vertex -4.75795 5.79758 0
      vertex -4.16678 6.23602 0
    endloop
  endfacet
  facet normal 0 0 -1
    outer loop
      vertex -5.3033 -5.3033 0
      vertex -4.75795 5.79758 0
      vertex -4.75795 -5.79758 0
    endloop
  endfacet
  facet normal 0 0 -1
    outer loop
      vertex -5.3033 -5.3033 0
      vertex -5.3033 5.3033 0
      vertex -4.75795 5.79758 0
    endloop
  endfacet
  facet normal 0 0 -1
    outer loop
      vertex -5.79758 -4.75795 0
      vertex -5.3033 5.3033 0
      vertex -5.3033 -5.3033 0
    endloop
  endfacet
  facet normal 0 0 -1
    outer loop
      vertex -5.79758 -4.75795 0
      vertex -5.79758 4.75795 0
      vertex -5.3033 5.3033 0
    endloop
  endfacet
  facet normal 0 0 -1
    outer loop
      vertex -6.23602 -4.16678 0
      vertex -5.79758 4.75795 0
      vertex -5.79758 -4.75795 0
    endloop
  endfacet
  facet normal 0 0 -1
    outer loop
      vertex -6.23602 -4.16678 0
      vertex -6.23602 4.16678 0
      vertex -5.79758 4.75795 0
    endloop
  endfacet
  facet normal 0 0 -1
    outer loop
      vertex -6.61441 -3.53547 0
      vertex -6.23602 4.16678 0
      vertex -6.23602 -4.16678 0
    endloop
  endfacet
  facet normal 0 0 -1
    outer loop
      vertex -6.61441 -3.53547 0
      vertex -6.61441 3.53547 0
      vertex -6.23602 4.16678 0
    endloop
  endfacet
  facet normal 0 0 -1
    outer loop
      vertex -6.9291 -2.87012 0
      vertex -6.61441 3.53547 0
      vertex -6.61441 -3.53547 0
    endloop
  endfacet
  facet normal 0 0 -1
    outer loop
      vertex -6.9291 -2.87012 0
      vertex -6.9291 2.87012 0
      vertex -6.61441 3.53547 0
    endloop
  endfacet
  facet normal 0 0 -1
    outer loop
      vertex -7.17705 -2.17713 0
      vertex -6.9291 2.87012 0
      vertex -6.9291 -2.87012 0
    endloop
  endfacet
  facet normal 0 0 -1
    outer loop
      vertex -7.17705 -2.17713 0
      vertex -7.17705 2.17713 0
      vertex -6.9291 2.87012 0
    endloop
  endfacet
  facet normal 0 0 -1
    outer loop
      vertex -7.35589 -1.46318 0
      vertex -7.17705 2.17713 0
      vertex -7.17705 -2.17713 0
    endloop
  endfacet
  facet normal 0 0 -1
    outer loop
      vertex -7.35589 -1.46318 0
      vertex -7.35589 1.46318 0
      vertex -7.17705 2.17713 0
    endloop
  endfacet
  facet normal 0 0 -1
    outer loop
      vertex -7.46389 -0.735128 0
      vertex -7.35589 1.46318 0
      vertex -7.35589 -1.46318 0
    endloop
  endfacet
  facet normal 0 0 -1
    outer loop
      vertex -7.46389 -0.735128 0
      vertex -7.46389 0.735128 0
      vertex -7.35589 1.46318 0
    endloop
  endfacet
  facet normal 0 -0 -1
    outer loop
      vertex -7.46389 0.735128 0
      vertex -7.46389 -0.735128 0
      vertex -7.5 0 0
    endloop
  endfacet
  facet normal 0.97003 0.242986 0
    outer loop
      vertex 7.35589 1.46318 2
      vertex 7.17705 2.17713 0
      vertex 7.17705 2.17713 2
    endloop
  endfacet
  facet normal 0.97003 0.242986 0
    outer loop
      vertex 7.17705 2.17713 0
      vertex 7.35589 1.46318 2
      vertex 7.35589 1.46318 0
    endloop
  endfacet
  facet normal 0.989176 0.146735 0
    outer loop
      vertex 7.46389 0.735128 2
      vertex 7.35589 1.46318 0
      vertex 7.35589 1.46318 2
    endloop
  endfacet
  facet normal 0.989176 0.146735 0
    outer loop
      vertex 7.35589 1.46318 0
      vertex 7.46389 0.735128 2
      vertex 7.46389 0.735128 0
    endloop
  endfacet
  facet normal 0.941547 0.336883 0
    outer loop
      vertex 7.17705 2.17713 2
      vertex 6.9291 2.87012 0
      vertex 6.9291 2.87012 2
    endloop
  endfacet
  facet normal 0.941547 0.336883 0
    outer loop
      vertex 6.9291 2.87012 0
      vertex 7.17705 2.17713 2
      vertex 7.17705 2.17713 0
    endloop
  endfacet
  facet normal 0.803209 0.595698 0
    outer loop
      vertex 6.23602 4.16678 2
      vertex 5.79758 4.75795 0
      vertex 5.79758 4.75795 2
    endloop
  endfacet
  facet normal 0.803209 0.595698 0
    outer loop
      vertex 5.79758 4.75795 0
      vertex 6.23602 4.16678 2
      vertex 6.23602 4.16678 0
    endloop
  endfacet
  facet normal 0.242986 0.97003 -0
    outer loop
      vertex 2.17713 7.17705 0
      vertex 1.46318 7.35589 2
      vertex 2.17713 7.17705 2
    endloop
  endfacet
  facet normal 0.242986 0.97003 0
    outer loop
      vertex 1.46318 7.35589 2
      vertex 2.17713 7.17705 0
      vertex 1.46318 7.35589 0
    endloop
  endfacet
  facet normal 0.336883 0.941547 -0
    outer loop
      vertex 2.87012 6.9291 0
      vertex 2.17713 7.17705 2
      vertex 2.87012 6.9291 2
    endloop
  endfacet
  facet normal 0.336883 0.941547 0
    outer loop
      vertex 2.17713 7.17705 2
      vertex 2.87012 6.9291 0
      vertex 2.17713 7.17705 0
    endloop
  endfacet
  facet normal 0.146735 0.989176 -0
    outer loop
      vertex 1.46318 7.35589 0
      vertex 0.735128 7.46389 2
      vertex 1.46318 7.35589 2
    endloop
  endfacet
  facet normal 0.146735 0.989176 0
    outer loop
      vertex 0.735128 7.46389 2
      vertex 1.46318 7.35589 0
      vertex 0.735128 7.46389 0
    endloop
  endfacet
  facet normal 0.5141 0.85773 -0
    outer loop
      vertex 4.16678 6.23602 0
      vertex 3.53547 6.61441 2
      vertex 4.16678 6.23602 2
    endloop
  endfacet
  facet normal 0.5141 0.85773 0
    outer loop
      vertex 3.53547 6.61441 2
      vertex 4.16678 6.23602 0
      vertex 3.53547 6.61441 0
    endloop
  endfacet
  facet normal 0.671562 0.740949 -0
    outer loop
      vertex 5.3033 5.3033 0
      vertex 4.75795 5.79758 2
      vertex 5.3033 5.3033 2
    endloop
  endfacet
  facet normal 0.671562 0.740949 0
    outer loop
      vertex 4.75795 5.79758 2
      vertex 5.3033 5.3033 0
      vertex 4.75795 5.79758 0
    endloop
  endfacet
  facet normal -0.97003 0.242986 0
    outer loop
      vertex -7.35589 1.46318 0
      vertex -7.17705 2.17713 2
      vertex -7.17705 2.17713 0
    endloop
  endfacet
  facet normal -0.97003 0.242986 0
    outer loop
      vertex -7.17705 2.17713 2
      vertex -7.35589 1.46318 0
      vertex -7.35589 1.46318 2
    endloop
  endfacet
  facet normal -0.803209 0.595698 0
    outer loop
      vertex -6.23602 4.16678 0
      vertex -5.79758 4.75795 2
      vertex -5.79758 4.75795 0
    endloop
  endfacet
  facet normal -0.803209 0.595698 0
    outer loop
      vertex -5.79758 4.75795 2
      vertex -6.23602 4.16678 0
      vertex -6.23602 4.16678 2
    endloop
  endfacet
  facet normal -0.740949 0.671562 0
    outer loop
      vertex -5.79758 4.75795 0
      vertex -5.3033 5.3033 2
      vertex -5.3033 5.3033 0
    endloop
  endfacet
  facet normal -0.740949 0.671562 0
    outer loop
      vertex -5.3033 5.3033 2
      vertex -5.79758 4.75795 0
      vertex -5.79758 4.75795 2
    endloop
  endfacet
  facet normal -0.85773 0.5141 0
    outer loop
      vertex -6.61441 3.53547 0
      vertex -6.23602 4.16678 2
      vertex -6.23602 4.16678 0
    endloop
  endfacet
  facet normal -0.85773 0.5141 0
    outer loop
      vertex -6.23602 4.16678 2
      vertex -6.61441 3.53547 0
      vertex -6.61441 3.53547 2
    endloop
  endfacet
  facet normal -0.941547 0.336883 0
    outer loop
      vertex -7.17705 2.17713 0
      vertex -6.9291 2.87012 2
      vertex -6.9291 2.87012 0
    endloop
  endfacet
  facet normal -0.941547 0.336883 0
    outer loop
      vertex -6.9291 2.87012 2
      vertex -7.17705 2.17713 0
      vertex -7.17705 2.17713 2
    endloop
  endfacet
  facet normal -0.989176 0.146735 0
    outer loop
      vertex -7.46389 0.735128 0
      vertex -7.35589 1.46318 2
      vertex -7.35589 1.46318 0
    endloop
  endfacet
  facet normal -0.989176 0.146735 0
    outer loop
      vertex -7.35589 1.46318 2
      vertex -7.46389 0.735128 0
      vertex -7.46389 0.735128 2
    endloop
  endfacet
  facet normal 0 0 1
    outer loop
      vertex 2.25 0 2
      vertex 7.5 0 2
      vertex 7.46389 0.735128 2
    endloop
  endfacet
  facet normal 0 0 1
    outer loop
      vertex 2.23917 0.220538 2
      vertex 7.46389 0.735128 2
      vertex 7.35589 1.46318 2
    endloop
  endfacet
  facet normal 0 0 1
    outer loop
      vertex 7.5 0 2
      vertex 2.25 0 2
      vertex 7.46389 -0.735128 2
    endloop
  endfacet
  facet normal 0 0 1
    outer loop
      vertex 2.20677 0.438952 2
      vertex 7.35589 1.46318 2
      vertex 7.17705 2.17713 2
    endloop
  endfacet
  facet normal -0 0 1
    outer loop
      vertex 2.23917 -0.220538 2
      vertex 7.46389 -0.735128 2
      vertex 2.25 0 2
    endloop
  endfacet
  facet normal 0 0 1
    outer loop
      vertex 2.15312 0.65314 2
      vertex 7.17705 2.17713 2
      vertex 6.9291 2.87012 2
    endloop
  endfacet
  facet normal 0 0 1
    outer loop
      vertex 7.46389 -0.735128 2
      vertex 2.23917 -0.220538 2
      vertex 7.35589 -1.46318 2
    endloop
  endfacet
  facet normal 0 0 1
    outer loop
      vertex 2.07873 0.861037 2
      vertex 6.9291 2.87012 2
      vertex 6.61441 3.53547 2
    endloop
  endfacet
  facet normal -0 0 1
    outer loop
      vertex 2.20677 -0.438952 2
      vertex 7.35589 -1.46318 2
      vertex 2.23917 -0.220538 2
    endloop
  endfacet
  facet normal 0 0 1
    outer loop
      vertex 1.98432 1.06064 2
      vertex 6.61441 3.53547 2
      vertex 6.23602 4.16678 2
    endloop
  endfacet
  facet normal 0 0 1
    outer loop
      vertex 7.35589 -1.46318 2
      vertex 2.20677 -0.438952 2
      vertex 7.17705 -2.17713 2
    endloop
  endfacet
  facet normal 0 0 1
    outer loop
      vertex 1.87081 1.25003 2
      vertex 6.23602 4.16678 2
      vertex 5.79758 4.75795 2
    endloop
  endfacet
  facet normal -0 0 1
    outer loop
      vertex 2.15312 -0.65314 2
      vertex 7.17705 -2.17713 2
      vertex 2.20677 -0.438952 2
    endloop
  endfacet
  facet normal 0 0 1
    outer loop
      vertex 1.73927 1.42738 2
      vertex 5.79758 4.75795 2
      vertex 5.3033 5.3033 2
    endloop
  endfacet
  facet normal 0 0 1
    outer loop
      vertex 7.17705 -2.17713 2
      vertex 2.15312 -0.65314 2
      vertex 6.9291 -2.87012 2
    endloop
  endfacet
  facet normal 0 0 1
    outer loop
      vertex 1.59099 1.59099 2
      vertex 5.3033 5.3033 2
      vertex 4.75795 5.79758 2
    endloop
  endfacet
  facet normal -0 0 1
    outer loop
      vertex 2.07873 -0.861037 2
      vertex 6.9291 -2.87012 2
      vertex 2.15312 -0.65314 2
    endloop
  endfacet
  facet normal 0 0 1
    outer loop
      vertex 1.42738 1.73927 2
      vertex 4.75795 5.79758 2
      vertex 4.16678 6.23602 2
    endloop
  endfacet
  facet normal 0 0 1
    outer loop
      vertex 6.9291 -2.87012 2
      vertex 2.07873 -0.861037 2
      vertex 6.61441 -3.53547 2
    endloop
  endfacet
  facet normal 0 0 1
    outer loop
      vertex 1.25003 1.87081 2
      vertex 4.16678 6.23602 2
      vertex 3.53547 6.61441 2
    endloop
  endfacet
  facet normal -0 0 1
    outer loop
      vertex 1.98432 -1.06064 2
      vertex 6.61441 -3.53547 2
      vertex 2.07873 -0.861037 2
    endloop
  endfacet
  facet normal 0 0 1
    outer loop
      vertex 1.06064 1.98432 2
      vertex 3.53547 6.61441 2
      vertex 2.87012 6.9291 2
    endloop
  endfacet
  facet normal 0 0 1
    outer loop
      vertex 6.61441 -3.53547 2
      vertex 1.98432 -1.06064 2
      vertex 6.23602 -4.16678 2
    endloop
  endfacet
  facet normal -0 0 1
    outer loop
      vertex 1.87081 -1.25003 2
      vertex 6.23602 -4.16678 2
      vertex 1.98432 -1.06064 2
    endloop
  endfacet
  facet normal 0 0 1
    outer loop
      vertex 7.46389 0.735128 2
      vertex 2.23917 0.220538 2
      vertex 2.25 0 2
    endloop
  endfacet
  facet normal 0 0 1
    outer loop
      vertex 7.35589 1.46318 2
      vertex 2.20677 0.438952 2
      vertex 2.23917 0.220538 2
    endloop
  endfacet
  facet normal 0 0 1
    outer loop
      vertex 0.861037 2.07873 2
      vertex 2.87012 6.9291 2
      vertex 2.17713 7.17705 2
    endloop
  endfacet
  facet normal 0 0 1
    outer loop
      vertex 7.17705 2.17713 2
      vertex 2.15312 0.65314 2
      vertex 2.20677 0.438952 2
    endloop
  endfacet
  facet normal 0 0 1
    outer loop
      vertex 6.9291 2.87012 2
      vertex 2.07873 0.861037 2
      vertex 2.15312 0.65314 2
    endloop
  endfacet
  facet normal 0 0 1
    outer loop
      vertex 6.61441 3.53547 2
      vertex 1.98432 1.06064 2
      vertex 2.07873 0.861037 2
    endloop
  endfacet
  facet normal 0 0 1
    outer loop
      vertex 6.23602 4.16678 2
      vertex 1.87081 1.25003 2
      vertex 1.98432 1.06064 2
    endloop
  endfacet
  facet normal 0 0 1
    outer loop
      vertex 5.79758 4.75795 2
      vertex 1.73927 1.42738 2
      vertex 1.87081 1.25003 2
    endloop
  endfacet
  facet normal 0 0 1
    outer loop
      vertex 5.3033 5.3033 2
      vertex 1.59099 1.59099 2
      vertex 1.73927 1.42738 2
    endloop
  endfacet
  facet normal 0 0 1
    outer loop
      vertex 0.65314 2.15312 2
      vertex 2.17713 7.17705 2
      vertex 1.46318 7.35589 2
    endloop
  endfacet
  facet normal 0 0 1
    outer loop
      vertex 4.75795 5.79758 2
      vertex 1.42738 1.73927 2
      vertex 1.59099 1.59099 2
    endloop
  endfacet
  facet normal 0 0 1
    outer loop
      vertex 4.16678 6.23602 2
      vertex 1.25003 1.87081 2
      vertex 1.42738 1.73927 2
    endloop
  endfacet
  facet normal 0 0 1
    outer loop
      vertex 3.53547 6.61441 2
      vertex 1.06064 1.98432 2
      vertex 1.25003 1.87081 2
    endloop
  endfacet
  facet normal 0 0 1
    outer loop
      vertex 2.87012 6.9291 2
      vertex 0.861037 2.07873 2
      vertex 1.06064 1.98432 2
    endloop
  endfacet
  facet normal 0 0 1
    outer loop
      vertex 0.438952 2.20677 2
      vertex 1.46318 7.35589 2
      vertex 0.735128 7.46389 2
    endloop
  endfacet
  facet normal 0 0 1
    outer loop
      vertex 2.17713 7.17705 2
      vertex 0.65314 2.15312 2
      vertex 0.861037 2.07873 2
    endloop
  endfacet
  facet normal 0 0 1
    outer loop
      vertex 1.46318 7.35589 2
      vertex 0.438952 2.20677 2
      vertex 0.65314 2.15312 2
    endloop
  endfacet
  facet normal 0 0 1
    outer loop
      vertex 0.735128 7.46389 2
      vertex 0.220538 2.23917 2
      vertex 0.438952 2.20677 2
    endloop
  endfacet
  facet normal 0 0 1
    outer loop
      vertex 0 7.5 2
      vertex 0.220538 2.23917 2
      vertex 0.735128 7.46389 2
    endloop
  endfacet
  facet normal 0 0 1
    outer loop
      vertex 0 7.5 2
      vertex 0 2.25 2
      vertex 0.220538 2.23917 2
    endloop
  endfacet
  facet normal 0 0 1
    outer loop
      vertex 0 7.5 2
      vertex -0.220538 2.23917 2
      vertex 0 2.25 2
    endloop
  endfacet
  facet normal -0 0 1
    outer loop
      vertex -0.735128 7.46389 2
      vertex -0.220538 2.23917 2
      vertex 0 7.5 2
    endloop
  endfacet
  facet normal 0 0 1
    outer loop
      vertex -0.220538 2.23917 2
      vertex -0.735128 7.46389 2
      vertex -0.438952 2.20677 2
    endloop
  endfacet
  facet normal -0 0 1
    outer loop
      vertex -1.46318 7.35589 2
      vertex -0.438952 2.20677 2
      vertex -0.735128 7.46389 2
    endloop
  endfacet
  facet normal 0 0 1
    outer loop
      vertex -0.438952 2.20677 2
      vertex -1.46318 7.35589 2
      vertex -0.65314 2.15312 2
    endloop
  endfacet
  facet normal -0 0 1
    outer loop
      vertex -2.17713 7.17705 2
      vertex -0.65314 2.15312 2
      vertex -1.46318 7.35589 2
    endloop
  endfacet
  facet normal 0 0 1
    outer loop
      vertex -0.65314 2.15312 2
      vertex -2.17713 7.17705 2
      vertex -0.861037 2.07873 2
    endloop
  endfacet
  facet normal -0 0 1
    outer loop
      vertex -2.87012 6.9291 2
      vertex -0.861037 2.07873 2
      vertex -2.17713 7.17705 2
    endloop
  endfacet
  facet normal 0 0 1
    outer loop
      vertex -0.861037 2.07873 2
      vertex -2.87012 6.9291 2
      vertex -1.06064 1.98432 2
    endloop
  endfacet
  facet normal -0 0 1
    outer loop
      vertex -3.53547 6.61441 2
      vertex -1.06064 1.98432 2
      vertex -2.87012 6.9291 2
    endloop
  endfacet
  facet normal 0 0 1
    outer loop
      vertex -1.06064 1.98432 2
      vertex -3.53547 6.61441 2
      vertex -1.25003 1.87081 2
    endloop
  endfacet
  facet normal -0 0 1
    outer loop
      vertex -4.16678 6.23602 2
      vertex -1.25003 1.87081 2
      vertex -3.53547 6.61441 2
    endloop
  endfacet
  facet normal 0 0 1
    outer loop
      vertex -1.25003 1.87081 2
      vertex -4.16678 6.23602 2
      vertex -1.42738 1.73927 2
    endloop
  endfacet
  facet normal -0 0 1
    outer loop
      vertex -4.75795 5.79758 2
      vertex -1.42738 1.73927 2
      vertex -4.16678 6.23602 2
    endloop
  endfacet
  facet normal 0 0 1
    outer loop
      vertex -1.42738 1.73927 2
      vertex -4.75795 5.79758 2
      vertex -1.59099 1.59099 2
    endloop
  endfacet
  facet normal -0 0 1
    outer loop
      vertex -5.3033 5.3033 2
      vertex -1.59099 1.59099 2
      vertex -4.75795 5.79758 2
    endloop
  endfacet
  facet normal 0 0 1
    outer loop
      vertex -1.59099 1.59099 2
      vertex -5.3033 5.3033 2
      vertex -1.73927 1.42738 2
    endloop
  endfacet
  facet normal -0 0 1
    outer loop
      vertex -5.79758 4.75795 2
      vertex -1.73927 1.42738 2
      vertex -5.3033 5.3033 2
    endloop
  endfacet
  facet normal 0 0 1
    outer loop
      vertex -1.73927 1.42738 2
      vertex -5.79758 4.75795 2
      vertex -1.87081 1.25003 2
    endloop
  endfacet
  facet normal -0 0 1
    outer loop
      vertex -6.23602 4.16678 2
      vertex -1.87081 1.25003 2
      vertex -5.79758 4.75795 2
    endloop
  endfacet
  facet normal 0 0 1
    outer loop
      vertex 6.23602 -4.16678 2
      vertex 1.87081 -1.25003 2
      vertex 5.79758 -4.75795 2
    endloop
  endfacet
  facet normal -0 0 1
    outer loop
      vertex 1.73927 -1.42738 2
      vertex 5.79758 -4.75795 2
      vertex 1.87081 -1.25003 2
    endloop
  endfacet
  facet normal 0 0 1
    outer loop
      vertex 5.79758 -4.75795 2
      vertex 1.73927 -1.42738 2
      vertex 5.3033 -5.3033 2
    endloop
  endfacet
  facet normal -0 0 1
    outer loop
      vertex 1.59099 -1.59099 2
      vertex 5.3033 -5.3033 2
      vertex 1.73927 -1.42738 2
    endloop
  endfacet
  facet normal 0 0 1
    outer loop
      vertex 5.3033 -5.3033 2
      vertex 1.59099 -1.59099 2
      vertex 4.75795 -5.79758 2
    endloop
  endfacet
  facet normal -0 0 1
    outer loop
      vertex 1.42738 -1.73927 2
      vertex 4.75795 -5.79758 2
      vertex 1.59099 -1.59099 2
    endloop
  endfacet
  facet normal 0 0 1
    outer loop
      vertex 4.75795 -5.79758 2
      vertex 1.42738 -1.73927 2
      vertex 4.16678 -6.23602 2
    endloop
  endfacet
  facet normal -0 0 1
    outer loop
      vertex 1.25003 -1.87081 2
      vertex 4.16678 -6.23602 2
      vertex 1.42738 -1.73927 2
    endloop
  endfacet
  facet normal 0 0 1
    outer loop
      vertex 4.16678 -6.23602 2
      vertex 1.25003 -1.87081 2
      vertex 3.53547 -6.61441 2
    endloop
  endfacet
  facet normal -0 0 1
    outer loop
      vertex 1.06064 -1.98432 2
      vertex 3.53547 -6.61441 2
      vertex 1.25003 -1.87081 2
    endloop
  endfacet
  facet normal 0 0 1
    outer loop
      vertex 3.53547 -6.61441 2
      vertex 1.06064 -1.98432 2
      vertex 2.87012 -6.9291 2
    endloop
  endfacet
  facet normal -0 0 1
    outer loop
      vertex 0.861037 -2.07873 2
      vertex 2.87012 -6.9291 2
      vertex 1.06064 -1.98432 2
    endloop
  endfacet
  facet normal 0 0 1
    outer loop
      vertex 2.87012 -6.9291 2
      vertex 0.861037 -2.07873 2
      vertex 2.17713 -7.17705 2
    endloop
  endfacet
  facet normal -0 0 1
    outer loop
      vertex 0.65314 -2.15312 2
      vertex 2.17713 -7.17705 2
      vertex 0.861037 -2.07873 2
    endloop
  endfacet
  facet normal 0 0 1
    outer loop
      vertex 2.17713 -7.17705 2
      vertex 0.65314 -2.15312 2
      vertex 1.46318 -7.35589 2
    endloop
  endfacet
  facet normal -0 0 1
    outer loop
      vertex 0.438952 -2.20677 2
      vertex 1.46318 -7.35589 2
      vertex 0.65314 -2.15312 2
    endloop
  endfacet
  facet normal 0 0 1
    outer loop
      vertex 1.46318 -7.35589 2
      vertex 0.438952 -2.20677 2
      vertex 0.735128 -7.46389 2
    endloop
  endfacet
  facet normal -0 0 1
    outer loop
      vertex 0.220538 -2.23917 2
      vertex 0.735128 -7.46389 2
      vertex 0.438952 -2.20677 2
    endloop
  endfacet
  facet normal -0 0 1
    outer loop
      vertex 0 -2.25 2
      vertex 0.735128 -7.46389 2
      vertex 0.220538 -2.23917 2
    endloop
  endfacet
  facet normal 0 0 1
    outer loop
      vertex 0 -2.25 2
      vertex 0 -7.5 2
      vertex 0.735128 -7.46389 2
    endloop
  endfacet
  facet normal 0 0 1
    outer loop
      vertex -0.220538 -2.23917 2
      vertex 0 -7.5 2
      vertex 0 -2.25 2
    endloop
  endfacet
  facet normal 0 0 1
    outer loop
      vertex -0.735128 -7.46389 2
      vertex -0.220538 -2.23917 2
      vertex -0.438952 -2.20677 2
    endloop
  endfacet
  facet normal 0 0 1
    outer loop
      vertex -1.46318 -7.35589 2
      vertex -0.438952 -2.20677 2
      vertex -0.65314 -2.15312 2
    endloop
  endfacet
  facet normal 0 0 1
    outer loop
      vertex -0.220538 -2.23917 2
      vertex -0.735128 -7.46389 2
      vertex 0 -7.5 2
    endloop
  endfacet
  facet normal 0 0 1
    outer loop
      vertex -2.17713 -7.17705 2
      vertex -0.65314 -2.15312 2
      vertex -0.861037 -2.07873 2
    endloop
  endfacet
  facet normal 0 0 1
    outer loop
      vertex -2.87012 -6.9291 2
      vertex -0.861037 -2.07873 2
      vertex -1.06064 -1.98432 2
    endloop
  endfacet
  facet normal 0 0 1
    outer loop
      vertex -3.53547 -6.61441 2
      vertex -1.06064 -1.98432 2
      vertex -1.25003 -1.87081 2
    endloop
  endfacet
  facet normal 0 0 1
    outer loop
      vertex -4.16678 -6.23602 2
      vertex -1.25003 -1.87081 2
      vertex -1.42738 -1.73927 2
    endloop
  endfacet
  facet normal 0 0 1
    outer loop
      vertex -0.438952 -2.20677 2
      vertex -1.46318 -7.35589 2
      vertex -0.735128 -7.46389 2
    endloop
  endfacet
  facet normal 0 0 1
    outer loop
      vertex -4.75795 -5.79758 2
      vertex -1.42738 -1.73927 2
      vertex -1.59099 -1.59099 2
    endloop
  endfacet
  facet normal 0 0 1
    outer loop
      vertex -5.3033 -5.3033 2
      vertex -1.59099 -1.59099 2
      vertex -1.73927 -1.42738 2
    endloop
  endfacet
  facet normal 0 0 1
    outer loop
      vertex -5.79758 -4.75795 2
      vertex -1.73927 -1.42738 2
      vertex -1.87081 -1.25003 2
    endloop
  endfacet
  facet normal 0 0 1
    outer loop
      vertex -6.23602 -4.16678 2
      vertex -1.87081 -1.25003 2
      vertex -1.98432 -1.06064 2
    endloop
  endfacet
  facet normal 0 0 1
    outer loop
      vertex -6.61441 -3.53547 2
      vertex -1.98432 -1.06064 2
      vertex -2.07873 -0.861037 2
    endloop
  endfacet
  facet normal 0 0 1
    outer loop
      vertex -6.9291 -2.87012 2
      vertex -2.07873 -0.861037 2
      vertex -2.15312 -0.65314 2
    endloop
  endfacet
  facet normal 0 0 1
    outer loop
      vertex -0.65314 -2.15312 2
      vertex -2.17713 -7.17705 2
      vertex -1.46318 -7.35589 2
    endloop
  endfacet
  facet normal 0 0 1
    outer loop
      vertex -7.17705 -2.17713 2
      vertex -2.15312 -0.65314 2
      vertex -2.20677 -0.438952 2
    endloop
  endfacet
  facet normal 0 0 1
    outer loop
      vertex -7.35589 -1.46318 2
      vertex -2.20677 -0.438952 2
      vertex -2.23917 -0.220538 2
    endloop
  endfacet
  facet normal 0 0 1
    outer loop
      vertex -7.46389 -0.735128 2
      vertex -2.23917 -0.220538 2
      vertex -2.25 0 2
    endloop
  endfacet
  facet normal 0 0 1
    outer loop
      vertex -1.87081 1.25003 2
      vertex -6.23602 4.16678 2
      vertex -1.98432 1.06064 2
    endloop
  endfacet
  facet normal 0 0 1
    outer loop
      vertex -0.861037 -2.07873 2
      vertex -2.87012 -6.9291 2
      vertex -2.17713 -7.17705 2
    endloop
  endfacet
  facet normal -0 0 1
    outer loop
      vertex -6.61441 3.53547 2
      vertex -1.98432 1.06064 2
      vertex -6.23602 4.16678 2
    endloop
  endfacet
  facet normal 0 0 1
    outer loop
      vertex -1.06064 -1.98432 2
      vertex -3.53547 -6.61441 2
      vertex -2.87012 -6.9291 2
    endloop
  endfacet
  facet normal 0 0 1
    outer loop
      vertex -1.98432 1.06064 2
      vertex -6.61441 3.53547 2
      vertex -2.07873 0.861037 2
    endloop
  endfacet
  facet normal 0 0 1
    outer loop
      vertex -1.25003 -1.87081 2
      vertex -4.16678 -6.23602 2
      vertex -3.53547 -6.61441 2
    endloop
  endfacet
  facet normal -0 0 1
    outer loop
      vertex -6.9291 2.87012 2
      vertex -2.07873 0.861037 2
      vertex -6.61441 3.53547 2
    endloop
  endfacet
  facet normal 0 0 1
    outer loop
      vertex -1.42738 -1.73927 2
      vertex -4.75795 -5.79758 2
      vertex -4.16678 -6.23602 2
    endloop
  endfacet
  facet normal 0 0 1
    outer loop
      vertex -2.07873 0.861037 2
      vertex -6.9291 2.87012 2
      vertex -2.15312 0.65314 2
    endloop
  endfacet
  facet normal 0 0 1
    outer loop
      vertex -1.59099 -1.59099 2
      vertex -5.3033 -5.3033 2
      vertex -4.75795 -5.79758 2
    endloop
  endfacet
  facet normal -0 0 1
    outer loop
      vertex -7.17705 2.17713 2
      vertex -2.15312 0.65314 2
      vertex -6.9291 2.87012 2
    endloop
  endfacet
  facet normal 0 0 1
    outer loop
      vertex -1.73927 -1.42738 2
      vertex -5.79758 -4.75795 2
      vertex -5.3033 -5.3033 2
    endloop
  endfacet
  facet normal 0 0 1
    outer loop
      vertex -2.15312 0.65314 2
      vertex -7.17705 2.17713 2
      vertex -2.20677 0.438952 2
    endloop
  endfacet
  facet normal 0 0 1
    outer loop
      vertex -1.87081 -1.25003 2
      vertex -6.23602 -4.16678 2
      vertex -5.79758 -4.75795 2
    endloop
  endfacet
  facet normal -0 0 1
    outer loop
      vertex -7.35589 1.46318 2
      vertex -2.20677 0.438952 2
      vertex -7.17705 2.17713 2
    endloop
  endfacet
  facet normal 0 0 1
    outer loop
      vertex -1.98432 -1.06064 2
      vertex -6.61441 -3.53547 2
      vertex -6.23602 -4.16678 2
    endloop
  endfacet
  facet normal 0 0 1
    outer loop
      vertex -2.20677 0.438952 2
      vertex -7.35589 1.46318 2
      vertex -2.23917 0.220538 2
    endloop
  endfacet
  facet normal 0 0 1
    outer loop
      vertex -2.07873 -0.861037 2
      vertex -6.9291 -2.87012 2
      vertex -6.61441 -3.53547 2
    endloop
  endfacet
  facet normal -0 0 1
    outer loop
      vertex -7.46389 0.735128 2
      vertex -2.23917 0.220538 2
      vertex -7.35589 1.46318 2
    endloop
  endfacet
  facet normal 0 0 1
    outer loop
      vertex -2.15312 -0.65314 2
      vertex -7.17705 -2.17713 2
      vertex -6.9291 -2.87012 2
    endloop
  endfacet
  facet normal 0 0 1
    outer loop
      vertex -2.23917 0.220538 2
      vertex -7.46389 0.735128 2
      vertex -2.25 0 2
    endloop
  endfacet
  facet normal 0 0 1
    outer loop
      vertex -2.20677 -0.438952 2
      vertex -7.35589 -1.46318 2
      vertex -7.17705 -2.17713 2
    endloop
  endfacet
  facet normal 0 0 1
    outer loop
      vertex -7.5 0 2
      vertex -2.25 0 2
      vertex -7.46389 0.735128 2
    endloop
  endfacet
  facet normal 0 0 1
    outer loop
      vertex -2.23917 -0.220538 2
      vertex -7.46389 -0.735128 2
      vertex -7.35589 -1.46318 2
    endloop
  endfacet
  facet normal 0 0 1
    outer loop
      vertex -2.25 0 2
      vertex -7.5 0 2
      vertex -7.46389 -0.735128 2
    endloop
  endfacet
  facet normal -0.5141 0.85773 0
    outer loop
      vertex -3.53547 6.61441 0
      vertex -4.16678 6.23602 2
      vertex -3.53547 6.61441 2
    endloop
  endfacet
  facet normal -0.5141 0.85773 0
    outer loop
      vertex -4.16678 6.23602 2
      vertex -3.53547 6.61441 0
      vertex -4.16678 6.23602 0
    endloop
  endfacet
  facet normal -0.427558 0.903988 0
    outer loop
      vertex -2.87012 6.9291 0
      vertex -3.53547 6.61441 2
      vertex -2.87012 6.9291 2
    endloop
  endfacet
  facet normal -0.427558 0.903988 0
    outer loop
      vertex -3.53547 6.61441 2
      vertex -2.87012 6.9291 0
      vertex -3.53547 6.61441 0
    endloop
  endfacet
  facet normal -0.595698 0.803209 0
    outer loop
      vertex -4.16678 6.23602 0
      vertex -4.75795 5.79758 2
      vertex -4.16678 6.23602 2
    endloop
  endfacet
  facet normal -0.595698 0.803209 0
    outer loop
      vertex -4.75795 5.79758 2
      vertex -4.16678 6.23602 0
      vertex -4.75795 5.79758 0
    endloop
  endfacet
  facet normal -0.242986 0.97003 0
    outer loop
      vertex -1.46318 7.35589 0
      vertex -2.17713 7.17705 2
      vertex -1.46318 7.35589 2
    endloop
  endfacet
  facet normal -0.242986 0.97003 0
    outer loop
      vertex -2.17713 7.17705 2
      vertex -1.46318 7.35589 0
      vertex -2.17713 7.17705 0
    endloop
  endfacet
  facet normal -0.0490615 0.998796 0
    outer loop
      vertex 0 7.5 0
      vertex -0.735128 7.46389 2
      vertex 0 7.5 2
    endloop
  endfacet
  facet normal -0.0490615 0.998796 0
    outer loop
      vertex -0.735128 7.46389 2
      vertex 0 7.5 0
      vertex -0.735128 7.46389 0
    endloop
  endfacet
  facet normal 0.998796 -0.0490615 0
    outer loop
      vertex 7.46389 -0.735128 2
      vertex 7.5 0 0
      vertex 7.5 0 2
    endloop
  endfacet
  facet normal 0.998796 -0.0490615 0
    outer loop
      vertex 7.5 0 0
      vertex 7.46389 -0.735128 2
      vertex 7.46389 -0.735128 0
    endloop
  endfacet
  facet normal 0.0490615 -0.998796 0
    outer loop
      vertex 0 -7.5 0
      vertex 0.735128 -7.46389 2
      vertex 0 -7.5 2
    endloop
  endfacet
  facet normal 0.0490615 -0.998796 0
    outer loop
      vertex 0.735128 -7.46389 2
      vertex 0 -7.5 0
      vertex 0.735128 -7.46389 0
    endloop
  endfacet
  facet normal 0.242986 -0.97003 0
    outer loop
      vertex 1.46318 -7.35589 0
      vertex 2.17713 -7.17705 2
      vertex 1.46318 -7.35589 2
    endloop
  endfacet
  facet normal 0.242986 -0.97003 0
    outer loop
      vertex 2.17713 -7.17705 2
      vertex 1.46318 -7.35589 0
      vertex 2.17713 -7.17705 0
    endloop
  endfacet
  facet normal 0.595698 -0.803209 0
    outer loop
      vertex 4.16678 -6.23602 0
      vertex 4.75795 -5.79758 2
      vertex 4.16678 -6.23602 2
    endloop
  endfacet
  facet normal 0.595698 -0.803209 0
    outer loop
      vertex 4.75795 -5.79758 2
      vertex 4.16678 -6.23602 0
      vertex 4.75795 -5.79758 0
    endloop
  endfacet
  facet normal 0.427558 -0.903988 0
    outer loop
      vertex 2.87012 -6.9291 0
      vertex 3.53547 -6.61441 2
      vertex 2.87012 -6.9291 2
    endloop
  endfacet
  facet normal 0.427558 -0.903988 0
    outer loop
      vertex 3.53547 -6.61441 2
      vertex 2.87012 -6.9291 0
      vertex 3.53547 -6.61441 0
    endloop
  endfacet
  facet normal 0.740949 -0.671562 0
    outer loop
      vertex 5.3033 -5.3033 2
      vertex 5.79758 -4.75795 0
      vertex 5.79758 -4.75795 2
    endloop
  endfacet
  facet normal 0.740949 -0.671562 0
    outer loop
      vertex 5.79758 -4.75795 0
      vertex 5.3033 -5.3033 2
      vertex 5.3033 -5.3033 0
    endloop
  endfacet
  facet normal 0.85773 -0.5141 0
    outer loop
      vertex 6.23602 -4.16678 2
      vertex 6.61441 -3.53547 0
      vertex 6.61441 -3.53547 2
    endloop
  endfacet
  facet normal 0.85773 -0.5141 0
    outer loop
      vertex 6.61441 -3.53547 0
      vertex 6.23602 -4.16678 2
      vertex 6.23602 -4.16678 0
    endloop
  endfacet
  facet normal -0.671562 -0.740949 0
    outer loop
      vertex -5.3033 -5.3033 0
      vertex -4.75795 -5.79758 2
      vertex -5.3033 -5.3033 2
    endloop
  endfacet
  facet normal -0.671562 -0.740949 -0
    outer loop
      vertex -4.75795 -5.79758 2
      vertex -5.3033 -5.3033 0
      vertex -4.75795 -5.79758 0
    endloop
  endfacet
  facet normal -0.5141 -0.85773 0
    outer loop
      vertex -4.16678 -6.23602 0
      vertex -3.53547 -6.61441 2
      vertex -4.16678 -6.23602 2
    endloop
  endfacet
  facet normal -0.5141 -0.85773 -0
    outer loop
      vertex -3.53547 -6.61441 2
      vertex -4.16678 -6.23602 0
      vertex -3.53547 -6.61441 0
    endloop
  endfacet
  facet normal -0.336883 -0.941547 0
    outer loop
      vertex -2.87012 -6.9291 0
      vertex -2.17713 -7.17705 2
      vertex -2.87012 -6.9291 2
    endloop
  endfacet
  facet normal -0.336883 -0.941547 -0
    outer loop
      vertex -2.17713 -7.17705 2
      vertex -2.87012 -6.9291 0
      vertex -2.17713 -7.17705 0
    endloop
  endfacet
  facet normal -0.146735 -0.989176 0
    outer loop
      vertex -1.46318 -7.35589 0
      vertex -0.735128 -7.46389 2
      vertex -1.46318 -7.35589 2
    endloop
  endfacet
  facet normal -0.146735 -0.989176 -0
    outer loop
      vertex -0.735128 -7.46389 2
      vertex -1.46318 -7.35589 0
      vertex -0.735128 -7.46389 0
    endloop
  endfacet
  facet normal -0.903988 -0.427558 0
    outer loop
      vertex -6.61441 -3.53547 0
      vertex -6.9291 -2.87012 2
      vertex -6.9291 -2.87012 0
    endloop
  endfacet
  facet normal -0.903988 -0.427558 0
    outer loop
      vertex -6.9291 -2.87012 2
      vertex -6.61441 -3.53547 0
      vertex -6.61441 -3.53547 2
    endloop
  endfacet
  facet normal -0.803209 -0.595698 0
    outer loop
      vertex -5.79758 -4.75795 0
      vertex -6.23602 -4.16678 2
      vertex -6.23602 -4.16678 0
    endloop
  endfacet
  facet normal -0.803209 -0.595698 0
    outer loop
      vertex -6.23602 -4.16678 2
      vertex -5.79758 -4.75795 0
      vertex -5.79758 -4.75795 2
    endloop
  endfacet
  facet normal -0.97003 -0.242986 0
    outer loop
      vertex -7.17705 -2.17713 0
      vertex -7.35589 -1.46318 2
      vertex -7.35589 -1.46318 0
    endloop
  endfacet
  facet normal -0.97003 -0.242986 0
    outer loop
      vertex -7.35589 -1.46318 2
      vertex -7.17705 -2.17713 0
      vertex -7.17705 -2.17713 2
    endloop
  endfacet
  facet normal -0.998796 -0.0490615 0
    outer loop
      vertex -7.46389 -0.735128 0
      vertex -7.5 0 2
      vertex -7.5 0 0
    endloop
  endfacet
  facet normal -0.998796 -0.0490615 0
    outer loop
      vertex -7.5 0 2
      vertex -7.46389 -0.735128 0
      vertex -7.46389 -0.735128 2
    endloop
  endfacet
  facet normal 0.146735 -0.989176 0
    outer loop
      vertex 0.735128 -7.46389 0
      vertex 1.46318 -7.35589 2
      vertex 0.735128 -7.46389 2
    endloop
  endfacet
  facet normal 0.146735 -0.989176 0
    outer loop
      vertex 1.46318 -7.35589 2
      vertex 0.735128 -7.46389 0
      vertex 1.46318 -7.35589 0
    endloop
  endfacet
  facet normal 0.336883 -0.941547 0
    outer loop
      vertex 2.17713 -7.17705 0
      vertex 2.87012 -6.9291 2
      vertex 2.17713 -7.17705 2
    endloop
  endfacet
  facet normal 0.336883 -0.941547 0
    outer loop
      vertex 2.87012 -6.9291 2
      vertex 2.17713 -7.17705 0
      vertex 2.87012 -6.9291 0
    endloop
  endfacet
  facet normal 0.671562 -0.740949 0
    outer loop
      vertex 4.75795 -5.79758 0
      vertex 5.3033 -5.3033 2
      vertex 4.75795 -5.79758 2
    endloop
  endfacet
  facet normal 0.671562 -0.740949 0
    outer loop
      vertex 5.3033 -5.3033 2
      vertex 4.75795 -5.79758 0
      vertex 5.3033 -5.3033 0
    endloop
  endfacet
  facet normal 0.5141 -0.85773 0
    outer loop
      vertex 3.53547 -6.61441 0
      vertex 4.16678 -6.23602 2
      vertex 3.53547 -6.61441 2
    endloop
  endfacet
  facet normal 0.5141 -0.85773 0
    outer loop
      vertex 4.16678 -6.23602 2
      vertex 3.53547 -6.61441 0
      vertex 4.16678 -6.23602 0
    endloop
  endfacet
  facet normal 0.803209 -0.595698 0
    outer loop
      vertex 5.79758 -4.75795 2
      vertex 6.23602 -4.16678 0
      vertex 6.23602 -4.16678 2
    endloop
  endfacet
  facet normal 0.803209 -0.595698 0
    outer loop
      vertex 6.23602 -4.16678 0
      vertex 5.79758 -4.75795 2
      vertex 5.79758 -4.75795 0
    endloop
  endfacet
  facet normal 0.903988 -0.427558 0
    outer loop
      vertex 6.61441 -3.53547 2
      vertex 6.9291 -2.87012 0
      vertex 6.9291 -2.87012 2
    endloop
  endfacet
  facet normal 0.903988 -0.427558 0
    outer loop
      vertex 6.9291 -2.87012 0
      vertex 6.61441 -3.53547 2
      vertex 6.61441 -3.53547 0
    endloop
  endfacet
  facet normal 0.989176 -0.146735 0
    outer loop
      vertex 7.35589 -1.46318 2
      vertex 7.46389 -0.735128 0
      vertex 7.46389 -0.735128 2
    endloop
  endfacet
  facet normal 0.989176 -0.146735 0
    outer loop
      vertex 7.46389 -0.735128 0
      vertex 7.35589 -1.46318 2
      vertex 7.35589 -1.46318 0
    endloop
  endfacet
  facet normal 0.97003 -0.242986 0
    outer loop
      vertex 7.17705 -2.17713 2
      vertex 7.35589 -1.46318 0
      vertex 7.35589 -1.46318 2
    endloop
  endfacet
  facet normal 0.97003 -0.242986 0
    outer loop
      vertex 7.35589 -1.46318 0
      vertex 7.17705 -2.17713 2
      vertex 7.17705 -2.17713 0
    endloop
  endfacet
  facet normal -0.595698 -0.803209 0
    outer loop
      vertex -4.75795 -5.79758 0
      vertex -4.16678 -6.23602 2
      vertex -4.75795 -5.79758 2
    endloop
  endfacet
  facet normal -0.595698 -0.803209 -0
    outer loop
      vertex -4.16678 -6.23602 2
      vertex -4.75795 -5.79758 0
      vertex -4.16678 -6.23602 0
    endloop
  endfacet
  facet normal -0.427558 -0.903988 0
    outer loop
      vertex -3.53547 -6.61441 0
      vertex -2.87012 -6.9291 2
      vertex -3.53547 -6.61441 2
    endloop
  endfacet
  facet normal -0.427558 -0.903988 -0
    outer loop
      vertex -2.87012 -6.9291 2
      vertex -3.53547 -6.61441 0
      vertex -2.87012 -6.9291 0
    endloop
  endfacet
  facet normal -0.242986 -0.97003 0
    outer loop
      vertex -2.17713 -7.17705 0
      vertex -1.46318 -7.35589 2
      vertex -2.17713 -7.17705 2
    endloop
  endfacet
  facet normal -0.242986 -0.97003 -0
    outer loop
      vertex -1.46318 -7.35589 2
      vertex -2.17713 -7.17705 0
      vertex -1.46318 -7.35589 0
    endloop
  endfacet
  facet normal -0.0490615 -0.998796 0
    outer loop
      vertex -0.735128 -7.46389 0
      vertex 0 -7.5 2
      vertex -0.735128 -7.46389 2
    endloop
  endfacet
  facet normal -0.0490615 -0.998796 -0
    outer loop
      vertex 0 -7.5 2
      vertex -0.735128 -7.46389 0
      vertex 0 -7.5 0
    endloop
  endfacet
  facet normal -0.85773 -0.5141 0
    outer loop
      vertex -6.23602 -4.16678 0
      vertex -6.61441 -3.53547 2
      vertex -6.61441 -3.53547 0
    endloop
  endfacet
  facet normal -0.85773 -0.5141 0
    outer loop
      vertex -6.61441 -3.53547 2
      vertex -6.23602 -4.16678 0
      vertex -6.23602 -4.16678 2
    endloop
  endfacet
  facet normal -0.740949 -0.671562 0
    outer loop
      vertex -5.3033 -5.3033 0
      vertex -5.79758 -4.75795 2
      vertex -5.79758 -4.75795 0
    endloop
  endfacet
  facet normal -0.740949 -0.671562 0
    outer loop
      vertex -5.79758 -4.75795 2
      vertex -5.3033 -5.3033 0
      vertex -5.3033 -5.3033 2
    endloop
  endfacet
  facet normal -0.941547 -0.336883 0
    outer loop
      vertex -6.9291 -2.87012 0
      vertex -7.17705 -2.17713 2
      vertex -7.17705 -2.17713 0
    endloop
  endfacet
  facet normal -0.941547 -0.336883 0
    outer loop
      vertex -7.17705 -2.17713 2
      vertex -6.9291 -2.87012 0
      vertex -6.9291 -2.87012 2
    endloop
  endfacet
  facet normal -0.989176 -0.146735 0
    outer loop
      vertex -7.35589 -1.46318 0
      vertex -7.46389 -0.735128 2
      vertex -7.46389 -0.735128 0
    endloop
  endfacet
  facet normal -0.989176 -0.146735 0
    outer loop
      vertex -7.46389 -0.735128 2
      vertex -7.35589 -1.46318 0
      vertex -7.35589 -1.46318 2
    endloop
  endfacet
  facet normal 0.941547 -0.336883 0
    outer loop
      vertex 6.9291 -2.87012 2
      vertex 7.17705 -2.17713 0
      vertex 7.17705 -2.17713 2
    endloop
  endfacet
  facet normal 0.941547 -0.336883 0
    outer loop
      vertex 7.17705 -2.17713 0
      vertex 6.9291 -2.87012 2
      vertex 6.9291 -2.87012 0
    endloop
  endfacet
  facet normal 0.998796 0.0490481 0
    outer loop
      vertex 2.25 0 12
      vertex 2.23917 0.220538 2
      vertex 2.23917 0.220538 12
    endloop
  endfacet
  facet normal 0.998796 0.0490481 0
    outer loop
      vertex 2.23917 0.220538 2
      vertex 2.25 0 12
      vertex 2.25 0 2
    endloop
  endfacet
  facet normal -0.998796 0.0490481 0
    outer loop
      vertex -2.25 0 2
      vertex -2.23917 0.220538 12
      vertex -2.23917 0.220538 2
    endloop
  endfacet
  facet normal -0.998796 0.0490481 0
    outer loop
      vertex -2.23917 0.220538 12
      vertex -2.25 0 2
      vertex -2.25 0 12
    endloop
  endfacet
  facet normal 0.0490481 0.998796 -0
    outer loop
      vertex 0.220538 2.23917 2
      vertex 0 2.25 12
      vertex 0.220538 2.23917 12
    endloop
  endfacet
  facet normal 0.0490481 0.998796 0
    outer loop
      vertex 0 2.25 12
      vertex 0.220538 2.23917 2
      vertex 0 2.25 2
    endloop
  endfacet
  facet normal 0.740968 0.67154 0
    outer loop
      vertex 1.73927 1.42738 12
      vertex 1.59099 1.59099 2
      vertex 1.59099 1.59099 12
    endloop
  endfacet
  facet normal 0.740968 0.67154 0
    outer loop
      vertex 1.59099 1.59099 2
      vertex 1.73927 1.42738 12
      vertex 1.73927 1.42738 2
    endloop
  endfacet
  facet normal -0.67154 0.740968 0
    outer loop
      vertex -1.42738 1.73927 2
      vertex -1.59099 1.59099 12
      vertex -1.42738 1.73927 12
    endloop
  endfacet
  facet normal -0.67154 0.740968 0
    outer loop
      vertex -1.59099 1.59099 12
      vertex -1.42738 1.73927 2
      vertex -1.59099 1.59099 2
    endloop
  endfacet
  facet normal -0.336903 0.941539 0
    outer loop
      vertex -0.65314 2.15312 2
      vertex -0.861037 2.07873 12
      vertex -0.65314 2.15312 12
    endloop
  endfacet
  facet normal -0.336903 0.941539 0
    outer loop
      vertex -0.861037 2.07873 12
      vertex -0.65314 2.15312 2
      vertex -0.861037 2.07873 2
    endloop
  endfacet
  facet normal 0.941539 0.336903 0
    outer loop
      vertex 2.15312 0.65314 12
      vertex 2.07873 0.861037 2
      vertex 2.07873 0.861037 12
    endloop
  endfacet
  facet normal 0.941539 0.336903 0
    outer loop
      vertex 2.07873 0.861037 2
      vertex 2.15312 0.65314 12
      vertex 2.15312 0.65314 2
    endloop
  endfacet
  facet normal 0.427573 0.903981 -0
    outer loop
      vertex 1.06064 1.98432 2
      vertex 0.861037 2.07873 12
      vertex 1.06064 1.98432 12
    endloop
  endfacet
  facet normal 0.427573 0.903981 0
    outer loop
      vertex 0.861037 2.07873 12
      vertex 1.06064 1.98432 2
      vertex 0.861037 2.07873 2
    endloop
  endfacet
  facet normal 0.595723 0.80319 -0
    outer loop
      vertex 1.42738 1.73927 2
      vertex 1.25003 1.87081 12
      vertex 1.42738 1.73927 12
    endloop
  endfacet
  facet normal 0.595723 0.80319 0
    outer loop
      vertex 1.25003 1.87081 12
      vertex 1.42738 1.73927 2
      vertex 1.25003 1.87081 2
    endloop
  endfacet
  facet normal -0.903981 0.427573 0
    outer loop
      vertex -2.07873 0.861037 2
      vertex -1.98432 1.06064 12
      vertex -1.98432 1.06064 2
    endloop
  endfacet
  facet normal -0.903981 0.427573 0
    outer loop
      vertex -1.98432 1.06064 12
      vertex -2.07873 0.861037 2
      vertex -2.07873 0.861037 12
    endloop
  endfacet
  facet normal -0.146736 0.989176 0
    outer loop
      vertex -0.220538 2.23917 2
      vertex -0.438952 2.20677 12
      vertex -0.220538 2.23917 12
    endloop
  endfacet
  facet normal -0.146736 0.989176 0
    outer loop
      vertex -0.438952 2.20677 12
      vertex -0.220538 2.23917 2
      vertex -0.438952 2.20677 2
    endloop
  endfacet
  facet normal 0.903981 -0.427573 0
    outer loop
      vertex 1.98432 -1.06064 12
      vertex 2.07873 -0.861037 2
      vertex 2.07873 -0.861037 12
    endloop
  endfacet
  facet normal 0.903981 -0.427573 0
    outer loop
      vertex 2.07873 -0.861037 2
      vertex 1.98432 -1.06064 12
      vertex 1.98432 -1.06064 2
    endloop
  endfacet
  facet normal -0.941539 -0.336903 0
    outer loop
      vertex -2.07873 -0.861037 2
      vertex -2.15312 -0.65314 12
      vertex -2.15312 -0.65314 2
    endloop
  endfacet
  facet normal -0.941539 -0.336903 0
    outer loop
      vertex -2.15312 -0.65314 12
      vertex -2.07873 -0.861037 2
      vertex -2.07873 -0.861037 12
    endloop
  endfacet
  facet normal 0.970033 0.242975 0
    outer loop
      vertex 2.20677 0.438952 12
      vertex 2.15312 0.65314 2
      vertex 2.15312 0.65314 12
    endloop
  endfacet
  facet normal 0.970033 0.242975 0
    outer loop
      vertex 2.15312 0.65314 2
      vertex 2.20677 0.438952 12
      vertex 2.20677 0.438952 2
    endloop
  endfacet
  facet normal 0.989176 0.146736 0
    outer loop
      vertex 2.23917 0.220538 12
      vertex 2.20677 0.438952 2
      vertex 2.20677 0.438952 12
    endloop
  endfacet
  facet normal 0.989176 0.146736 0
    outer loop
      vertex 2.20677 0.438952 2
      vertex 2.23917 0.220538 12
      vertex 2.23917 0.220538 2
    endloop
  endfacet
  facet normal 0.857741 0.514083 0
    outer loop
      vertex 1.98432 1.06064 12
      vertex 1.87081 1.25003 2
      vertex 1.87081 1.25003 12
    endloop
  endfacet
  facet normal 0.857741 0.514083 0
    outer loop
      vertex 1.87081 1.25003 2
      vertex 1.98432 1.06064 12
      vertex 1.98432 1.06064 2
    endloop
  endfacet
  facet normal 0.80319 0.595723 0
    outer loop
      vertex 1.87081 1.25003 12
      vertex 1.73927 1.42738 2
      vertex 1.73927 1.42738 12
    endloop
  endfacet
  facet normal 0.80319 0.595723 0
    outer loop
      vertex 1.73927 1.42738 2
      vertex 1.87081 1.25003 12
      vertex 1.87081 1.25003 2
    endloop
  endfacet
  facet normal 0.903981 0.427573 0
    outer loop
      vertex 2.07873 0.861037 12
      vertex 1.98432 1.06064 2
      vertex 1.98432 1.06064 12
    endloop
  endfacet
  facet normal 0.903981 0.427573 0
    outer loop
      vertex 1.98432 1.06064 2
      vertex 2.07873 0.861037 12
      vertex 2.07873 0.861037 2
    endloop
  endfacet
  facet normal 0.242975 0.970033 -0
    outer loop
      vertex 0.65314 2.15312 2
      vertex 0.438952 2.20677 12
      vertex 0.65314 2.15312 12
    endloop
  endfacet
  facet normal 0.242975 0.970033 0
    outer loop
      vertex 0.438952 2.20677 12
      vertex 0.65314 2.15312 2
      vertex 0.438952 2.20677 2
    endloop
  endfacet
  facet normal 0.336903 0.941539 -0
    outer loop
      vertex 0.861037 2.07873 2
      vertex 0.65314 2.15312 12
      vertex 0.861037 2.07873 12
    endloop
  endfacet
  facet normal 0.336903 0.941539 0
    outer loop
      vertex 0.65314 2.15312 12
      vertex 0.861037 2.07873 2
      vertex 0.65314 2.15312 2
    endloop
  endfacet
  facet normal 0.146736 0.989176 -0
    outer loop
      vertex 0.438952 2.20677 2
      vertex 0.220538 2.23917 12
      vertex 0.438952 2.20677 12
    endloop
  endfacet
  facet normal 0.146736 0.989176 0
    outer loop
      vertex 0.220538 2.23917 12
      vertex 0.438952 2.20677 2
      vertex 0.220538 2.23917 2
    endloop
  endfacet
  facet normal 0.514083 0.857741 -0
    outer loop
      vertex 1.25003 1.87081 2
      vertex 1.06064 1.98432 12
      vertex 1.25003 1.87081 12
    endloop
  endfacet
  facet normal 0.514083 0.857741 0
    outer loop
      vertex 1.06064 1.98432 12
      vertex 1.25003 1.87081 2
      vertex 1.06064 1.98432 2
    endloop
  endfacet
  facet normal 0.67154 0.740968 -0
    outer loop
      vertex 1.59099 1.59099 2
      vertex 1.42738 1.73927 12
      vertex 1.59099 1.59099 12
    endloop
  endfacet
  facet normal 0.67154 0.740968 0
    outer loop
      vertex 1.42738 1.73927 12
      vertex 1.59099 1.59099 2
      vertex 1.42738 1.73927 2
    endloop
  endfacet
  facet normal -0.970033 0.242975 0
    outer loop
      vertex -2.20677 0.438952 2
      vertex -2.15312 0.65314 12
      vertex -2.15312 0.65314 2
    endloop
  endfacet
  facet normal -0.970033 0.242975 0
    outer loop
      vertex -2.15312 0.65314 12
      vertex -2.20677 0.438952 2
      vertex -2.20677 0.438952 12
    endloop
  endfacet
  facet normal -0.80319 0.595723 0
    outer loop
      vertex -1.87081 1.25003 2
      vertex -1.73927 1.42738 12
      vertex -1.73927 1.42738 2
    endloop
  endfacet
  facet normal -0.80319 0.595723 0
    outer loop
      vertex -1.73927 1.42738 12
      vertex -1.87081 1.25003 2
      vertex -1.87081 1.25003 12
    endloop
  endfacet
  facet normal -0.740968 0.67154 0
    outer loop
      vertex -1.73927 1.42738 2
      vertex -1.59099 1.59099 12
      vertex -1.59099 1.59099 2
    endloop
  endfacet
  facet normal -0.740968 0.67154 0
    outer loop
      vertex -1.59099 1.59099 12
      vertex -1.73927 1.42738 2
      vertex -1.73927 1.42738 12
    endloop
  endfacet
  facet normal -0.857741 0.514083 0
    outer loop
      vertex -1.98432 1.06064 2
      vertex -1.87081 1.25003 12
      vertex -1.87081 1.25003 2
    endloop
  endfacet
  facet normal -0.857741 0.514083 0
    outer loop
      vertex -1.87081 1.25003 12
      vertex -1.98432 1.06064 2
      vertex -1.98432 1.06064 12
    endloop
  endfacet
  facet normal -0.941539 0.336903 0
    outer loop
      vertex -2.15312 0.65314 2
      vertex -2.07873 0.861037 12
      vertex -2.07873 0.861037 2
    endloop
  endfacet
  facet normal -0.941539 0.336903 0
    outer loop
      vertex -2.07873 0.861037 12
      vertex -2.15312 0.65314 2
      vertex -2.15312 0.65314 12
    endloop
  endfacet
  facet normal -0.989176 0.146736 0
    outer loop
      vertex -2.23917 0.220538 2
      vertex -2.20677 0.438952 12
      vertex -2.20677 0.438952 2
    endloop
  endfacet
  facet normal -0.989176 0.146736 0
    outer loop
      vertex -2.20677 0.438952 12
      vertex -2.23917 0.220538 2
      vertex -2.23917 0.220538 12
    endloop
  endfacet
  facet normal 0 0 1
    outer loop
      vertex 2.23917 0.220538 12
      vertex 2.23917 -0.220538 12
      vertex 2.25 0 12
    endloop
  endfacet
  facet normal 0 0 1
    outer loop
      vertex 2.20677 0.438952 12
      vertex 2.23917 -0.220538 12
      vertex 2.23917 0.220538 12
    endloop
  endfacet
  facet normal 0 0 1
    outer loop
      vertex 2.20677 0.438952 12
      vertex 2.20677 -0.438952 12
      vertex 2.23917 -0.220538 12
    endloop
  endfacet
  facet normal 0 0 1
    outer loop
      vertex 2.15312 0.65314 12
      vertex 2.20677 -0.438952 12
      vertex 2.20677 0.438952 12
    endloop
  endfacet
  facet normal 0 0 1
    outer loop
      vertex 2.15312 0.65314 12
      vertex 2.15312 -0.65314 12
      vertex 2.20677 -0.438952 12
    endloop
  endfacet
  facet normal 0 0 1
    outer loop
      vertex 2.07873 0.861037 12
      vertex 2.15312 -0.65314 12
      vertex 2.15312 0.65314 12
    endloop
  endfacet
  facet normal 0 0 1
    outer loop
      vertex 2.07873 0.861037 12
      vertex 2.07873 -0.861037 12
      vertex 2.15312 -0.65314 12
    endloop
  endfacet
  facet normal 0 0 1
    outer loop
      vertex 1.98432 1.06064 12
      vertex 2.07873 -0.861037 12
      vertex 2.07873 0.861037 12
    endloop
  endfacet
  facet normal 0 0 1
    outer loop
      vertex 1.98432 1.06064 12
      vertex 1.98432 -1.06064 12
      vertex 2.07873 -0.861037 12
    endloop
  endfacet
  facet normal 0 0 1
    outer loop
      vertex 1.87081 1.25003 12
      vertex 1.98432 -1.06064 12
      vertex 1.98432 1.06064 12
    endloop
  endfacet
  facet normal 0 0 1
    outer loop
      vertex 1.87081 1.25003 12
      vertex 1.87081 -1.25003 12
      vertex 1.98432 -1.06064 12
    endloop
  endfacet
  facet normal 0 0 1
    outer loop
      vertex 1.73927 1.42738 12
      vertex 1.87081 -1.25003 12
      vertex 1.87081 1.25003 12
    endloop
  endfacet
  facet normal 0 0 1
    outer loop
      vertex 1.73927 1.42738 12
      vertex 1.73927 -1.42738 12
      vertex 1.87081 -1.25003 12
    endloop
  endfacet
  facet normal 0 0 1
    outer loop
      vertex 1.59099 1.59099 12
      vertex 1.73927 -1.42738 12
      vertex 1.73927 1.42738 12
    endloop
  endfacet
  facet normal 0 0 1
    outer loop
      vertex 1.59099 1.59099 12
      vertex 1.59099 -1.59099 12
      vertex 1.73927 -1.42738 12
    endloop
  endfacet
  facet normal 0 0 1
    outer loop
      vertex 1.42738 1.73927 12
      vertex 1.59099 -1.59099 12
      vertex 1.59099 1.59099 12
    endloop
  endfacet
  facet normal 0 0 1
    outer loop
      vertex 1.42738 1.73927 12
      vertex 1.42738 -1.73927 12
      vertex 1.59099 -1.59099 12
    endloop
  endfacet
  facet normal 0 0 1
    outer loop
      vertex 1.25003 1.87081 12
      vertex 1.42738 -1.73927 12
      vertex 1.42738 1.73927 12
    endloop
  endfacet
  facet normal 0 0 1
    outer loop
      vertex 1.25003 1.87081 12
      vertex 1.25003 -1.87081 12
      vertex 1.42738 -1.73927 12
    endloop
  endfacet
  facet normal 0 0 1
    outer loop
      vertex 1.06064 1.98432 12
      vertex 1.25003 -1.87081 12
      vertex 1.25003 1.87081 12
    endloop
  endfacet
  facet normal 0 0 1
    outer loop
      vertex 1.06064 1.98432 12
      vertex 1.06064 -1.98432 12
      vertex 1.25003 -1.87081 12
    endloop
  endfacet
  facet normal 0 0 1
    outer loop
      vertex 0.861037 2.07873 12
      vertex 1.06064 -1.98432 12
      vertex 1.06064 1.98432 12
    endloop
  endfacet
  facet normal 0 0 1
    outer loop
      vertex 0.861037 2.07873 12
      vertex 0.861037 -2.07873 12
      vertex 1.06064 -1.98432 12
    endloop
  endfacet
  facet normal 0 0 1
    outer loop
      vertex 0.65314 2.15312 12
      vertex 0.861037 -2.07873 12
      vertex 0.861037 2.07873 12
    endloop
  endfacet
  facet normal 0 0 1
    outer loop
      vertex 0.65314 2.15312 12
      vertex 0.65314 -2.15312 12
      vertex 0.861037 -2.07873 12
    endloop
  endfacet
  facet normal 0 0 1
    outer loop
      vertex 0.438952 2.20677 12
      vertex 0.65314 -2.15312 12
      vertex 0.65314 2.15312 12
    endloop
  endfacet
  facet normal 0 0 1
    outer loop
      vertex 0.438952 2.20677 12
      vertex 0.438952 -2.20677 12
      vertex 0.65314 -2.15312 12
    endloop
  endfacet
  facet normal 0 0 1
    outer loop
      vertex 0.220538 2.23917 12
      vertex 0.438952 -2.20677 12
      vertex 0.438952 2.20677 12
    endloop
  endfacet
  facet normal 0 0 1
    outer loop
      vertex 0.220538 2.23917 12
      vertex 0.220538 -2.23917 12
      vertex 0.438952 -2.20677 12
    endloop
  endfacet
  facet normal 0 0 1
    outer loop
      vertex 0 2.25 12
      vertex 0.220538 -2.23917 12
      vertex 0.220538 2.23917 12
    endloop
  endfacet
  facet normal 0 0 1
    outer loop
      vertex 0 2.25 12
      vertex 0 -2.25 12
      vertex 0.220538 -2.23917 12
    endloop
  endfacet
  facet normal -0 0 1
    outer loop
      vertex -0.220538 2.23917 12
      vertex 0 -2.25 12
      vertex 0 2.25 12
    endloop
  endfacet
  facet normal 0 0 1
    outer loop
      vertex -0.220538 2.23917 12
      vertex -0.220538 -2.23917 12
      vertex 0 -2.25 12
    endloop
  endfacet
  facet normal -0 0 1
    outer loop
      vertex -0.438952 2.20677 12
      vertex -0.220538 -2.23917 12
      vertex -0.220538 2.23917 12
    endloop
  endfacet
  facet normal 0 0 1
    outer loop
      vertex -0.438952 2.20677 12
      vertex -0.438952 -2.20677 12
      vertex -0.220538 -2.23917 12
    endloop
  endfacet
  facet normal -0 0 1
    outer loop
      vertex -0.65314 2.15312 12
      vertex -0.438952 -2.20677 12
      vertex -0.438952 2.20677 12
    endloop
  endfacet
  facet normal 0 0 1
    outer loop
      vertex -0.65314 2.15312 12
      vertex -0.65314 -2.15312 12
      vertex -0.438952 -2.20677 12
    endloop
  endfacet
  facet normal -0 0 1
    outer loop
      vertex -0.861037 2.07873 12
      vertex -0.65314 -2.15312 12
      vertex -0.65314 2.15312 12
    endloop
  endfacet
  facet normal 0 0 1
    outer loop
      vertex -0.861037 2.07873 12
      vertex -0.861037 -2.07873 12
      vertex -0.65314 -2.15312 12
    endloop
  endfacet
  facet normal -0 0 1
    outer loop
      vertex -1.06064 1.98432 12
      vertex -0.861037 -2.07873 12
      vertex -0.861037 2.07873 12
    endloop
  endfacet
  facet normal 0 0 1
    outer loop
      vertex -1.06064 1.98432 12
      vertex -1.06064 -1.98432 12
      vertex -0.861037 -2.07873 12
    endloop
  endfacet
  facet normal -0 0 1
    outer loop
      vertex -1.25003 1.87081 12
      vertex -1.06064 -1.98432 12
      vertex -1.06064 1.98432 12
    endloop
  endfacet
  facet normal 0 0 1
    outer loop
      vertex -1.25003 1.87081 12
      vertex -1.25003 -1.87081 12
      vertex -1.06064 -1.98432 12
    endloop
  endfacet
  facet normal -0 0 1
    outer loop
      vertex -1.42738 1.73927 12
      vertex -1.25003 -1.87081 12
      vertex -1.25003 1.87081 12
    endloop
  endfacet
  facet normal 0 0 1
    outer loop
      vertex -1.42738 1.73927 12
      vertex -1.42738 -1.73927 12
      vertex -1.25003 -1.87081 12
    endloop
  endfacet
  facet normal -0 0 1
    outer loop
      vertex -1.59099 1.59099 12
      vertex -1.42738 -1.73927 12
      vertex -1.42738 1.73927 12
    endloop
  endfacet
  facet normal 0 0 1
    outer loop
      vertex -1.59099 1.59099 12
      vertex -1.59099 -1.59099 12
      vertex -1.42738 -1.73927 12
    endloop
  endfacet
  facet normal -0 0 1
    outer loop
      vertex -1.73927 1.42738 12
      vertex -1.59099 -1.59099 12
      vertex -1.59099 1.59099 12
    endloop
  endfacet
  facet normal 0 0 1
    outer loop
      vertex -1.73927 1.42738 12
      vertex -1.73927 -1.42738 12
      vertex -1.59099 -1.59099 12
    endloop
  endfacet
  facet normal -0 0 1
    outer loop
      vertex -1.87081 1.25003 12
      vertex -1.73927 -1.42738 12
      vertex -1.73927 1.42738 12
    endloop
  endfacet
  facet normal 0 0 1
    outer loop
      vertex -1.87081 1.25003 12
      vertex -1.87081 -1.25003 12
      vertex -1.73927 -1.42738 12
    endloop
  endfacet
  facet normal -0 0 1
    outer loop
      vertex -1.98432 1.06064 12
      vertex -1.87081 -1.25003 12
      vertex -1.87081 1.25003 12
    endloop
  endfacet
  facet normal 0 0 1
    outer loop
      vertex -1.98432 1.06064 12
      vertex -1.98432 -1.06064 12
      vertex -1.87081 -1.25003 12
    endloop
  endfacet
  facet normal -0 0 1
    outer loop
      vertex -2.07873 0.861037 12
      vertex -1.98432 -1.06064 12
      vertex -1.98432 1.06064 12
    endloop
  endfacet
  facet normal 0 0 1
    outer loop
      vertex -2.07873 0.861037 12
      vertex -2.07873 -0.861037 12
      vertex -1.98432 -1.06064 12
    endloop
  endfacet
  facet normal -0 0 1
    outer loop
      vertex -2.15312 0.65314 12
      vertex -2.07873 -0.861037 12
      vertex -2.07873 0.861037 12
    endloop
  endfacet
  facet normal 0 0 1
    outer loop
      vertex -2.15312 0.65314 12
      vertex -2.15312 -0.65314 12
      vertex -2.07873 -0.861037 12
    endloop
  endfacet
  facet normal -0 0 1
    outer loop
      vertex -2.20677 0.438952 12
      vertex -2.15312 -0.65314 12
      vertex -2.15312 0.65314 12
    endloop
  endfacet
  facet normal 0 0 1
    outer loop
      vertex -2.20677 0.438952 12
      vertex -2.20677 -0.438952 12
      vertex -2.15312 -0.65314 12
    endloop
  endfacet
  facet normal -0 0 1
    outer loop
      vertex -2.23917 0.220538 12
      vertex -2.20677 -0.438952 12
      vertex -2.20677 0.438952 12
    endloop
  endfacet
  facet normal 0 0 1
    outer loop
      vertex -2.23917 0.220538 12
      vertex -2.23917 -0.220538 12
      vertex -2.20677 -0.438952 12
    endloop
  endfacet
  facet normal 0 -0 1
    outer loop
      vertex -2.23917 -0.220538 12
      vertex -2.23917 0.220538 12
      vertex -2.25 0 12
    endloop
  endfacet
  facet normal -0.514083 0.857741 0
    outer loop
      vertex -1.06064 1.98432 2
      vertex -1.25003 1.87081 12
      vertex -1.06064 1.98432 12
    endloop
  endfacet
  facet normal -0.514083 0.857741 0
    outer loop
      vertex -1.25003 1.87081 12
      vertex -1.06064 1.98432 2
      vertex -1.25003 1.87081 2
    endloop
  endfacet
  facet normal -0.427573 0.903981 0
    outer loop
      vertex -0.861037 2.07873 2
      vertex -1.06064 1.98432 12
      vertex -0.861037 2.07873 12
    endloop
  endfacet
  facet normal -0.427573 0.903981 0
    outer loop
      vertex -1.06064 1.98432 12
      vertex -0.861037 2.07873 2
      vertex -1.06064 1.98432 2
    endloop
  endfacet
  facet normal -0.595723 0.80319 0
    outer loop
      vertex -1.25003 1.87081 2
      vertex -1.42738 1.73927 12
      vertex -1.25003 1.87081 12
    endloop
  endfacet
  facet normal -0.595723 0.80319 0
    outer loop
      vertex -1.42738 1.73927 12
      vertex -1.25003 1.87081 2
      vertex -1.42738 1.73927 2
    endloop
  endfacet
  facet normal -0.242975 0.970033 0
    outer loop
      vertex -0.438952 2.20677 2
      vertex -0.65314 2.15312 12
      vertex -0.438952 2.20677 12
    endloop
  endfacet
  facet normal -0.242975 0.970033 0
    outer loop
      vertex -0.65314 2.15312 12
      vertex -0.438952 2.20677 2
      vertex -0.65314 2.15312 2
    endloop
  endfacet
  facet normal -0.0490481 0.998796 0
    outer loop
      vertex 0 2.25 2
      vertex -0.220538 2.23917 12
      vertex 0 2.25 12
    endloop
  endfacet
  facet normal -0.0490481 0.998796 0
    outer loop
      vertex -0.220538 2.23917 12
      vertex 0 2.25 2
      vertex -0.220538 2.23917 2
    endloop
  endfacet
  facet normal 0.998796 -0.0490481 0
    outer loop
      vertex 2.23917 -0.220538 12
      vertex 2.25 0 2
      vertex 2.25 0 12
    endloop
  endfacet
  facet normal 0.998796 -0.0490481 0
    outer loop
      vertex 2.25 0 2
      vertex 2.23917 -0.220538 12
      vertex 2.23917 -0.220538 2
    endloop
  endfacet
  facet normal 0.0490481 -0.998796 0
    outer loop
      vertex 0 -2.25 2
      vertex 0.220538 -2.23917 12
      vertex 0 -2.25 12
    endloop
  endfacet
  facet normal 0.0490481 -0.998796 0
    outer loop
      vertex 0.220538 -2.23917 12
      vertex 0 -2.25 2
      vertex 0.220538 -2.23917 2
    endloop
  endfacet
  facet normal 0.242975 -0.970033 0
    outer loop
      vertex 0.438952 -2.20677 2
      vertex 0.65314 -2.15312 12
      vertex 0.438952 -2.20677 12
    endloop
  endfacet
  facet normal 0.242975 -0.970033 0
    outer loop
      vertex 0.65314 -2.15312 12
      vertex 0.438952 -2.20677 2
      vertex 0.65314 -2.15312 2
    endloop
  endfacet
  facet normal 0.595723 -0.80319 0
    outer loop
      vertex 1.25003 -1.87081 2
      vertex 1.42738 -1.73927 12
      vertex 1.25003 -1.87081 12
    endloop
  endfacet
  facet normal 0.595723 -0.80319 0
    outer loop
      vertex 1.42738 -1.73927 12
      vertex 1.25003 -1.87081 2
      vertex 1.42738 -1.73927 2
    endloop
  endfacet
  facet normal 0.427573 -0.903981 0
    outer loop
      vertex 0.861037 -2.07873 2
      vertex 1.06064 -1.98432 12
      vertex 0.861037 -2.07873 12
    endloop
  endfacet
  facet normal 0.427573 -0.903981 0
    outer loop
      vertex 1.06064 -1.98432 12
      vertex 0.861037 -2.07873 2
      vertex 1.06064 -1.98432 2
    endloop
  endfacet
  facet normal 0.740968 -0.67154 0
    outer loop
      vertex 1.59099 -1.59099 12
      vertex 1.73927 -1.42738 2
      vertex 1.73927 -1.42738 12
    endloop
  endfacet
  facet normal 0.740968 -0.67154 0
    outer loop
      vertex 1.73927 -1.42738 2
      vertex 1.59099 -1.59099 12
      vertex 1.59099 -1.59099 2
    endloop
  endfacet
  facet normal 0.857741 -0.514083 0
    outer loop
      vertex 1.87081 -1.25003 12
      vertex 1.98432 -1.06064 2
      vertex 1.98432 -1.06064 12
    endloop
  endfacet
  facet normal 0.857741 -0.514083 0
    outer loop
      vertex 1.98432 -1.06064 2
      vertex 1.87081 -1.25003 12
      vertex 1.87081 -1.25003 2
    endloop
  endfacet
  facet normal -0.67154 -0.740968 0
    outer loop
      vertex -1.59099 -1.59099 2
      vertex -1.42738 -1.73927 12
      vertex -1.59099 -1.59099 12
    endloop
  endfacet
  facet normal -0.67154 -0.740968 -0
    outer loop
      vertex -1.42738 -1.73927 12
      vertex -1.59099 -1.59099 2
      vertex -1.42738 -1.73927 2
    endloop
  endfacet
  facet normal -0.514083 -0.857741 0
    outer loop
      vertex -1.25003 -1.87081 2
      vertex -1.06064 -1.98432 12
      vertex -1.25003 -1.87081 12
    endloop
  endfacet
  facet normal -0.514083 -0.857741 -0
    outer loop
      vertex -1.06064 -1.98432 12
      vertex -1.25003 -1.87081 2
      vertex -1.06064 -1.98432 2
    endloop
  endfacet
  facet normal -0.336903 -0.941539 0
    outer loop
      vertex -0.861037 -2.07873 2
      vertex -0.65314 -2.15312 12
      vertex -0.861037 -2.07873 12
    endloop
  endfacet
  facet normal -0.336903 -0.941539 -0
    outer loop
      vertex -0.65314 -2.15312 12
      vertex -0.861037 -2.07873 2
      vertex -0.65314 -2.15312 2
    endloop
  endfacet
  facet normal -0.146736 -0.989176 0
    outer loop
      vertex -0.438952 -2.20677 2
      vertex -0.220538 -2.23917 12
      vertex -0.438952 -2.20677 12
    endloop
  endfacet
  facet normal -0.146736 -0.989176 -0
    outer loop
      vertex -0.220538 -2.23917 12
      vertex -0.438952 -2.20677 2
      vertex -0.220538 -2.23917 2
    endloop
  endfacet
  facet normal -0.80319 -0.595723 0
    outer loop
      vertex -1.73927 -1.42738 2
      vertex -1.87081 -1.25003 12
      vertex -1.87081 -1.25003 2
    endloop
  endfacet
  facet normal -0.80319 -0.595723 0
    outer loop
      vertex -1.87081 -1.25003 12
      vertex -1.73927 -1.42738 2
      vertex -1.73927 -1.42738 12
    endloop
  endfacet
  facet normal -0.903981 -0.427573 0
    outer loop
      vertex -1.98432 -1.06064 2
      vertex -2.07873 -0.861037 12
      vertex -2.07873 -0.861037 2
    endloop
  endfacet
  facet normal -0.903981 -0.427573 0
    outer loop
      vertex -2.07873 -0.861037 12
      vertex -1.98432 -1.06064 2
      vertex -1.98432 -1.06064 12
    endloop
  endfacet
  facet normal -0.857741 -0.514083 0
    outer loop
      vertex -1.87081 -1.25003 2
      vertex -1.98432 -1.06064 12
      vertex -1.98432 -1.06064 2
    endloop
  endfacet
  facet normal -0.857741 -0.514083 0
    outer loop
      vertex -1.98432 -1.06064 12
      vertex -1.87081 -1.25003 2
      vertex -1.87081 -1.25003 12
    endloop
  endfacet
  facet normal -0.998796 -0.0490481 0
    outer loop
      vertex -2.23917 -0.220538 2
      vertex -2.25 0 12
      vertex -2.25 0 2
    endloop
  endfacet
  facet normal -0.998796 -0.0490481 0
    outer loop
      vertex -2.25 0 12
      vertex -2.23917 -0.220538 2
      vertex -2.23917 -0.220538 12
    endloop
  endfacet
  facet normal -0.970033 -0.242975 0
    outer loop
      vertex -2.15312 -0.65314 2
      vertex -2.20677 -0.438952 12
      vertex -2.20677 -0.438952 2
    endloop
  endfacet
  facet normal -0.970033 -0.242975 0
    outer loop
      vertex -2.20677 -0.438952 12
      vertex -2.15312 -0.65314 2
      vertex -2.15312 -0.65314 12
    endloop
  endfacet
  facet normal 0.146736 -0.989176 0
    outer loop
      vertex 0.220538 -2.23917 2
      vertex 0.438952 -2.20677 12
      vertex 0.220538 -2.23917 12
    endloop
  endfacet
  facet normal 0.146736 -0.989176 0
    outer loop
      vertex 0.438952 -2.20677 12
      vertex 0.220538 -2.23917 2
      vertex 0.438952 -2.20677 2
    endloop
  endfacet
  facet normal 0.336903 -0.941539 0
    outer loop
      vertex 0.65314 -2.15312 2
      vertex 0.861037 -2.07873 12
      vertex 0.65314 -2.15312 12
    endloop
  endfacet
  facet normal 0.336903 -0.941539 0
    outer loop
      vertex 0.861037 -2.07873 12
      vertex 0.65314 -2.15312 2
      vertex 0.861037 -2.07873 2
    endloop
  endfacet
  facet normal 0.67154 -0.740968 0
    outer loop
      vertex 1.42738 -1.73927 2
      vertex 1.59099 -1.59099 12
      vertex 1.42738 -1.73927 12
    endloop
  endfacet
  facet normal 0.67154 -0.740968 0
    outer loop
      vertex 1.59099 -1.59099 12
      vertex 1.42738 -1.73927 2
      vertex 1.59099 -1.59099 2
    endloop
  endfacet
  facet normal 0.514083 -0.857741 0
    outer loop
      vertex 1.06064 -1.98432 2
      vertex 1.25003 -1.87081 12
      vertex 1.06064 -1.98432 12
    endloop
  endfacet
  facet normal 0.514083 -0.857741 0
    outer loop
      vertex 1.25003 -1.87081 12
      vertex 1.06064 -1.98432 2
      vertex 1.25003 -1.87081 2
    endloop
  endfacet
  facet normal 0.80319 -0.595723 0
    outer loop
      vertex 1.73927 -1.42738 12
      vertex 1.87081 -1.25003 2
      vertex 1.87081 -1.25003 12
    endloop
  endfacet
  facet normal 0.80319 -0.595723 0
    outer loop
      vertex 1.87081 -1.25003 2
      vertex 1.73927 -1.42738 12
      vertex 1.73927 -1.42738 2
    endloop
  endfacet
  facet normal 0.941539 -0.336903 0
    outer loop
      vertex 2.07873 -0.861037 12
      vertex 2.15312 -0.65314 2
      vertex 2.15312 -0.65314 12
    endloop
  endfacet
  facet normal 0.941539 -0.336903 0
    outer loop
      vertex 2.15312 -0.65314 2
      vertex 2.07873 -0.861037 12
      vertex 2.07873 -0.861037 2
    endloop
  endfacet
  facet normal 0.989176 -0.146736 0
    outer loop
      vertex 2.20677 -0.438952 12
      vertex 2.23917 -0.220538 2
      vertex 2.23917 -0.220538 12
    endloop
  endfacet
  facet normal 0.989176 -0.146736 0
    outer loop
      vertex 2.23917 -0.220538 2
      vertex 2.20677 -0.438952 12
      vertex 2.20677 -0.438952 2
    endloop
  endfacet
  facet normal -0.595723 -0.80319 0
    outer loop
      vertex -1.42738 -1.73927 2
      vertex -1.25003 -1.87081 12
      vertex -1.42738 -1.73927 12
    endloop
  endfacet
  facet normal -0.595723 -0.80319 -0
    outer loop
      vertex -1.25003 -1.87081 12
      vertex -1.42738 -1.73927 2
      vertex -1.25003 -1.87081 2
    endloop
  endfacet
  facet normal -0.427573 -0.903981 0
    outer loop
      vertex -1.06064 -1.98432 2
      vertex -0.861037 -2.07873 12
      vertex -1.06064 -1.98432 12
    endloop
  endfacet
  facet normal -0.427573 -0.903981 -0
    outer loop
      vertex -0.861037 -2.07873 12
      vertex -1.06064 -1.98432 2
      vertex -0.861037 -2.07873 2
    endloop
  endfacet
  facet normal -0.242975 -0.970033 0
    outer loop
      vertex -0.65314 -2.15312 2
      vertex -0.438952 -2.20677 12
      vertex -0.65314 -2.15312 12
    endloop
  endfacet
  facet normal -0.242975 -0.970033 -0
    outer loop
      vertex -0.438952 -2.20677 12
      vertex -0.65314 -2.15312 2
      vertex -0.438952 -2.20677 2
    endloop
  endfacet
  facet normal -0.0490481 -0.998796 0
    outer loop
      vertex -0.220538 -2.23917 2
      vertex 0 -2.25 12
      vertex -0.220538 -2.23917 12
    endloop
  endfacet
  facet normal -0.0490481 -0.998796 -0
    outer loop
      vertex 0 -2.25 12
      vertex -0.220538 -2.23917 2
      vertex 0 -2.25 2
    endloop
  endfacet
  facet normal -0.740968 -0.67154 0
    outer loop
      vertex -1.59099 -1.59099 2
      vertex -1.73927 -1.42738 12
      vertex -1.73927 -1.42738 2
    endloop
  endfacet
  facet normal -0.740968 -0.67154 0
    outer loop
      vertex -1.73927 -1.42738 12
      vertex -1.59099 -1.59099 2
      vertex -1.59099 -1.59099 12
    endloop
  endfacet
  facet normal -0.989176 -0.146736 0
    outer loop
      vertex -2.20677 -0.438952 2
      vertex -2.23917 -0.220538 12
      vertex -2.23917 -0.220538 2
    endloop
  endfacet
  facet normal -0.989176 -0.146736 0
    outer loop
      vertex -2.23917 -0.220538 12
      vertex -2.20677 -0.438952 2
      vertex -2.20677 -0.438952 12
    endloop
  endfacet
  facet normal 0.970033 -0.242975 0
    outer loop
      vertex 2.15312 -0.65314 12
      vertex 2.20677 -0.438952 2
      vertex 2.20677 -0.438952 12
    endloop
  endfacet
  facet normal 0.970033 -0.242975 0
    outer loop
      vertex 2.20677 -0.438952 2
      vertex 2.15312 -0.65314 12
      vertex 2.15312 -0.65314 2
    endloop
  endfacet
endsolid OpenSCAD_Model
